<?xml version="1.0" encoding="UTF-8"?>
<svg version="1.1" xmlns="http://www.w3.org/2000/svg" width="2048" height="512">
<path d="M0 0 C675.84 0 1351.68 0 2048 0 C2048 168.96 2048 337.92 2048 512 C1372.16 512 696.32 512 0 512 C0 343.04 0 174.08 0 0 Z " fill="#FDFEFE" transform="translate(0,0)"/>
<path d="M0 0 C1.7778186 0.01293091 1.7778186 0.01293091 3.59155273 0.02612305 C18.84837808 0.18232912 31.34226036 1.7699091 45.625 7.1875 C46.95411682 7.53726758 48.28662678 7.87501638 49.625 8.1875 C49.625 8.8475 49.625 9.5075 49.625 10.1875 C50.2025 10.331875 50.78 10.47625 51.375 10.625 C53.45833333 11.14583333 55.54166667 11.66666667 57.625 12.1875 C57.625 12.8475 57.625 13.5075 57.625 14.1875 C58.16125 14.31125 58.6975 14.435 59.25 14.5625 C62.10401595 15.31355683 64.86303841 16.14409229 67.625 17.1875 C67.955 17.8475 68.285 18.5075 68.625 19.1875 C69.615 19.7753125 69.615 19.7753125 70.625 20.375 C84.41937576 28.70910202 97.92179196 41.00453461 105.625 55.1875 C106.59576826 56.71370784 107.57425367 58.23505096 108.5625 59.75 C110.625 62.93991158 110.625 62.93991158 110.625 65.1875 C111.285 65.1875 111.945 65.1875 112.625 65.1875 C113.13115298 66.45589526 113.62969099 67.72733102 114.125 69 C114.54265625 70.06154297 114.54265625 70.06154297 114.96875 71.14453125 C115.625 73.1875 115.625 73.1875 115.625 76.1875 C116.285 76.1875 116.945 76.1875 117.625 76.1875 C121.05357143 84.61607143 121.05357143 84.61607143 120.625 89.1875 C121.285 89.1875 121.945 89.1875 122.625 89.1875 C122.71064209 89.74735596 122.79628418 90.30721191 122.88452148 90.8840332 C123.27448061 93.42311208 123.66844516 95.96155368 124.0625 98.5 C124.19720703 99.38107422 124.33191406 100.26214844 124.47070312 101.16992188 C124.60283203 102.01748047 124.73496094 102.86503906 124.87109375 103.73828125 C125.05176392 104.90870972 125.05176392 104.90870972 125.23608398 106.1027832 C125.60988611 108.37029797 125.60988611 108.37029797 126.625 111.1875 C128.06554586 130.18283582 126.06495832 148.57696037 118.625 166.1875 C117.965 166.1875 117.305 166.1875 116.625 166.1875 C116.49738281 166.88488281 116.36976563 167.58226562 116.23828125 168.30078125 C115.58197909 171.38999968 114.75259591 174.35995136 113.8125 177.375 C113.33876953 178.94314453 113.33876953 178.94314453 112.85546875 180.54296875 C111.43606987 183.59354985 110.59064976 183.88814838 107.625 185.1875 C106.9236716 187.51065031 106.26014826 189.84539079 105.625 192.1875 C103.79018966 194.81739482 101.86062062 196.9590194 99.5625 199.1875 C97.46495165 201.3527112 96.15165726 203.5988203 94.625 206.1875 C92.98146105 208.12986421 91.61092652 209.1953186 89.375 210.4375 C86.23004847 212.43883279 83.9747974 214.80669307 81.40234375 217.48046875 C79.75882942 219.05896493 78.17898084 220.23940399 76.25 221.4375 C73.35274657 222.98102592 73.35274657 222.98102592 72.625 226.1875 C69.98884465 227.58018584 67.31282245 228.89734522 64.625 230.1875 C60.665 232.4975 56.705 234.8075 52.625 237.1875 C77.375 237.6825 77.375 237.6825 102.625 238.1875 C102.955 240.1675 103.285 242.1475 103.625 244.1875 C102.625 245.1875 102.625 245.1875 99.96116638 245.30775452 C98.1791256 245.3044236 98.1791256 245.3044236 96.36108398 245.30102539 C95.3806311 245.30124443 95.3806311 245.30124443 94.38037109 245.3014679 C92.21057872 245.30076883 90.04087121 245.29297678 87.87109375 245.28515625 C86.37036689 245.28329205 84.86963943 245.28186816 83.36891174 245.28086853 C79.41181774 245.27704352 75.45476022 245.2672134 71.49768066 245.25616455 C67.46265151 245.24595006 63.42761647 245.24137083 59.39257812 245.23632812 C51.47003531 245.22559111 43.54752219 245.2085149 35.625 245.1875 C34.97800801 243.59673265 34.33366276 242.00488866 33.69042969 240.41259766 C33.33132507 239.52625641 32.97222046 238.63991516 32.60223389 237.72671509 C31.44339783 234.71563039 30.60550477 231.70367052 29.875 228.5625 C29.63265625 227.53898438 29.3903125 226.51546875 29.140625 225.4609375 C28.97046875 224.71070313 28.8003125 223.96046875 28.625 223.1875 C27.08280706 228.23583992 26.02662878 233.18950134 25.22265625 238.40234375 C25.03780922 239.56244713 25.03780922 239.56244713 24.84922791 240.74598694 C24.45792467 243.20503544 24.0722879 245.6649243 23.6875 248.125 C23.181279 251.34291155 22.67213687 254.56034357 22.16015625 257.77734375 C21.97206894 258.96171524 21.97206894 258.96171524 21.78018188 260.17001343 C20.73650037 266.66459795 19.53662017 273.12165715 18.27124023 279.57641602 C17.79131182 282.25817692 17.41047053 284.88036824 17.10180664 287.58178711 C16.625 291.1875 16.625 291.1875 15.625 292.1875 C15.23351239 293.69915654 14.88527543 295.22219632 14.5625 296.75 C14.38589844 297.57628906 14.20929688 298.40257812 14.02734375 299.25390625 C13.89457031 299.89199219 13.76179687 300.53007812 13.625 301.1875 C11.96885343 301.56968767 10.30042976 301.90145102 8.625 302.1875 C7.0792829 300.6417829 7.24459608 298.99213794 6.9765625 296.84765625 C6.85796875 295.94853516 6.739375 295.04941406 6.6171875 294.12304688 C6.37694193 292.24325312 6.13983602 290.36305477 5.90625 288.48242188 C5.29399141 283.88071239 4.51626057 279.5640369 3.08984375 275.140625 C1.47511522 270.06855432 0.93966471 265.16721647 0.5625 259.875 C-0.04981369 251.90279698 -1.0996675 244.08065086 -2.375 236.1875 C-3.09415467 231.60579405 -3.79908142 227.02202669 -4.5 222.4375 C-4.68175781 221.28378906 -4.86351562 220.13007813 -5.05078125 218.94140625 C-6.01146147 212.60669531 -6.57946829 206.59417313 -6.375 200.1875 C-10.01863983 203.39001221 -10.43575617 207.03069274 -11.3125 211.625 C-12.95924952 219.64535462 -14.68878239 227.81506477 -18.375 235.1875 C-18.60122081 236.89113822 -18.78388473 238.60078701 -18.9375 240.3125 C-19.06318359 241.67761719 -19.06318359 241.67761719 -19.19140625 243.0703125 C-19.25199219 243.76898438 -19.31257813 244.46765625 -19.375 245.1875 C-32.00495485 245.21062132 -44.6349047 245.22841401 -57.26487637 245.23931217 C-63.12882164 245.24454146 -68.99275249 245.25163994 -74.85668945 245.26293945 C-80.51061712 245.2737667 -86.16453087 245.27977649 -91.81846809 245.28237724 C-93.9807361 245.28423179 -96.14300331 245.28785295 -98.30526543 245.29323006 C-101.32258657 245.30043833 -104.33984943 245.30149103 -107.35717773 245.30102539 C-108.71231728 245.3064183 -108.71231728 245.3064183 -110.09483337 245.31192017 C-116.26094784 245.30155216 -116.26094784 245.30155216 -117.375 244.1875 C-117.5 241.6875 -117.5 241.6875 -117.375 239.1875 C-115.46114588 237.27364588 -112.0039211 238.01220803 -109.46850586 237.98217773 C-108.74659561 237.97227814 -108.02468536 237.96237854 -107.28089905 237.95217896 C-104.88391449 237.92047701 -102.48691008 237.89577241 -100.08984375 237.87109375 C-98.43216931 237.85053171 -96.7745002 237.82953545 -95.11683655 237.80812073 C-90.74551705 237.7528225 -86.37414963 237.70344756 -82.00274658 237.65527344 C-77.54540726 237.60511484 -73.08813787 237.5493994 -68.63085938 237.49414062 C-59.8789653 237.38646432 -51.12701288 237.28504055 -42.375 237.1875 C-46.335 235.2075 -50.295 233.2275 -54.375 231.1875 C-54.375 230.5275 -54.375 229.8675 -54.375 229.1875 C-55.179375 229.0328125 -55.179375 229.0328125 -56 228.875 C-59.00002044 228.00657303 -61.6129535 226.63129704 -64.375 225.1875 C-64.375 224.5275 -64.375 223.8675 -64.375 223.1875 C-65.035 222.98125 -65.695 222.775 -66.375 222.5625 C-77.37935397 217.51883777 -86.75576347 207.1163548 -93.375 197.1875 C-93.86605225 196.70071777 -94.35710449 196.21393555 -94.86303711 195.71240234 C-96.40334064 194.15891682 -97.4430856 192.66083091 -98.56640625 190.7890625 C-99.14745117 189.82226562 -99.14745117 189.82226562 -99.74023438 188.8359375 C-100.13533203 188.16820312 -100.53042969 187.50046875 -100.9375 186.8125 C-101.33646484 186.1525 -101.73542969 185.4925 -102.14648438 184.8125 C-107.375 176.04884443 -107.375 176.04884443 -107.375 171.1875 C-108.035 171.1875 -108.695 171.1875 -109.375 171.1875 C-109.705 168.8775 -110.035 166.5675 -110.375 164.1875 C-111.035 164.1875 -111.695 164.1875 -112.375 164.1875 C-121.92905966 134.77996885 -122.46100295 101.17891611 -108.375 73.1875 C-107.88 72.1975 -107.88 72.1975 -107.375 71.1875 C-106.715 71.1875 -106.055 71.1875 -105.375 71.1875 C-105.2821875 69.7334375 -105.2821875 69.7334375 -105.1875 68.25 C-103.6598725 58.1797187 -95.51865872 49.89953989 -89.375 42.1875 C-88.65441406 41.23359375 -87.93382812 40.2796875 -87.19140625 39.296875 C-86.59199219 38.60078125 -85.99257813 37.9046875 -85.375 37.1875 C-84.715 37.1875 -84.055 37.1875 -83.375 37.1875 C-83.375 36.5275 -83.375 35.8675 -83.375 35.1875 C-82.715 35.1875 -82.055 35.1875 -81.375 35.1875 C-81.375 34.5275 -81.375 33.8675 -81.375 33.1875 C-75.89880952 28.1875 -75.89880952 28.1875 -73.375 28.1875 C-73.375 27.5275 -73.375 26.8675 -73.375 26.1875 C-69.91346154 23.1875 -69.91346154 23.1875 -67.375 23.1875 C-67.375 22.5275 -67.375 21.8675 -67.375 21.1875 C-64.46951118 19.14580515 -62.97357954 18.1875 -59.375 18.1875 C-59.375 17.5275 -59.375 16.8675 -59.375 16.1875 C-50.65272799 11.65934177 -41.84507809 7.8852735 -32.48046875 4.8984375 C-30.32285732 4.19993772 -30.32285732 4.19993772 -28.08569336 3.21264648 C-19.14599579 -0.16822266 -9.42849422 -0.10940732 0 0 Z " fill="#FCFCFE" transform="translate(447.375,121.8125)"/>
<path d="M0 0 C11.22 0 22.44 0 34 0 C34.495 1.485 34.495 1.485 35 3 C35.66 3 36.32 3 37 3 C37 4.32 37 5.64 37 7 C37.66 7 38.32 7 39 7 C39.67154933 8.28913487 40.33708859 9.58140204 41 10.875 C41.37125 11.59429687 41.7425 12.31359375 42.125 13.0546875 C43 15 43 15 43 17 C43.66 17 44.32 17 45 17 C45.495 19.97 45.495 19.97 46 23 C46.66 23 47.32 23 48 23 C48.83144531 24.48113281 48.83144531 24.48113281 49.6796875 25.9921875 C50.41128672 27.28655535 51.14306699 28.58082087 51.875 29.875 C52.23980469 30.52597656 52.60460937 31.17695313 52.98046875 31.84765625 C54.48660536 34.50393354 55.83019001 36.83019001 58 39 C58 40.32 58 41.64 58 43 C58.66 43 59.32 43 60 43 C61.60451041 45.3259414 63.06707189 47.63384708 64.5 50.0625 C64.90347656 50.71927734 65.30695313 51.37605469 65.72265625 52.05273438 C68.25594093 56.2957772 69.84974257 60.19267412 71 65 C71.66 65 72.32 65 73 65 C73.67154933 66.28913487 74.33708859 67.58140204 75 68.875 C75.37125 69.59429687 75.7425 70.31359375 76.125 71.0546875 C77 73 77 73 77 75 C77.66 75 78.32 75 79 75 C79.82113177 76.39077301 80.63152495 77.78788893 81.4375 79.1875 C81.88996094 79.96480469 82.34242188 80.74210937 82.80859375 81.54296875 C84.02391499 84.04931977 84.57626575 86.25790365 85 89 C85.66 89 86.32 89 87 89 C88.625 90.5 88.625 90.5 90 92 C90.26425781 91.28199219 90.52851562 90.56398438 90.80078125 89.82421875 C92.03108473 86.92679393 93.48144918 84.45551238 95.1875 81.8125 C95.80367187 80.85472656 96.41984375 79.89695312 97.0546875 78.91015625 C98.90877198 76.13647566 100.84604429 73.44462027 102.8125 70.75 C105.58133053 66.86370424 107.08607094 63.67119295 108 59 C108.66 59 109.32 59 110 59 C110.2578125 58.32195312 110.515625 57.64390625 110.78125 56.9453125 C112.20316319 53.50902228 113.82960116 50.19483034 115.5 46.875 C115.80808594 46.25496094 116.11617187 45.63492188 116.43359375 44.99609375 C117.83115672 42.20696593 119.26668772 39.59996842 121 37 C121.66 37 122.32 37 123 37 C123.07863281 36.32195312 123.15726563 35.64390625 123.23828125 34.9453125 C124.21911944 31.15273817 126.12101079 28.15347193 128.1875 24.875 C129.00962294 23.54147904 129.82992541 22.20683409 130.6484375 20.87109375 C131.05030273 20.21608887 131.45216797 19.56108398 131.86621094 18.88623047 C133.91206175 15.48264663 135.76496066 11.97831803 137.61328125 8.46484375 C139.25317274 5.54999438 141.1448126 2.7827811 143 0 C154.22 0 165.44 0 177 0 C177 51.48 177 102.96 177 156 C165.12 156 153.24 156 141 156 C141 126.3 141 96.6 141 66 C139.68 66.33 138.36 66.66 137 67 C135.792117 69.26751067 135.792117 69.26751067 135 72 C133.66666667 75.33333333 132.33333333 78.66666667 131 82 C130.34 82 129.68 82 129 82 C128.67 83.65 128.34 85.3 128 87 C127.34 87 126.68 87 126 87 C125.81824219 87.61488281 125.63648438 88.22976562 125.44921875 88.86328125 C125.19785156 89.67152344 124.94648437 90.47976562 124.6875 91.3125 C124.44386719 92.11300781 124.20023438 92.91351563 123.94921875 93.73828125 C122.93152181 96.16316409 121.86424782 97.19126328 120 99 C118.99221778 100.67963703 118.03831038 102.39217869 117.125 104.125 C116.59777344 105.11371094 116.07054687 106.10242188 115.52734375 107.12109375 C115.02332031 108.07113281 114.51929688 109.02117187 114 110 C113.2337984 111.39838114 112.46324063 112.79438794 111.6875 114.1875 C111.29433594 114.89519531 110.90117188 115.60289062 110.49609375 116.33203125 C109.24522633 118.56269039 107.98589831 120.78806311 106.72265625 123.01171875 C106.31635986 123.72884033 105.91006348 124.44596191 105.49145508 125.18481445 C104.67453348 126.62603444 103.85541807 128.06601349 103.03393555 129.50463867 C101.44493098 132.31042103 100.0223801 134.93285971 99 138 C92.4 138 85.8 138 79 138 C78.01 135.525 78.01 135.525 77 133 C76.34 133 75.68 133 75 133 C74.32845067 131.71086513 73.66291141 130.41859796 73 129.125 C72.62875 128.40570313 72.2575 127.68640625 71.875 126.9453125 C71 125 71 125 71 123 C70.34 123 69.68 123 69 123 C66.94356259 119.07407404 65.31061591 115.23429756 64 111 C63.34 111 62.68 111 62 111 C61.66226563 110.21753906 61.32453125 109.43507813 60.9765625 108.62890625 C60.53054688 107.61699219 60.08453125 106.60507812 59.625 105.5625 C59.18414063 104.55316406 58.74328125 103.54382813 58.2890625 102.50390625 C57.24923714 99.87856453 57.24923714 99.87856453 55 99 C55 98.34 55 97.68 55 97 C54.34 97 53.68 97 53 97 C52.8040625 96.44054687 52.608125 95.88109375 52.40625 95.3046875 C50.07213737 89.04685107 47.09480262 83.43018369 43.64257812 77.73583984 C41 73.30614957 41 73.30614957 41 70 C40.34 70 39.68 70 39 70 C38.67 68.35 38.34 66.7 38 65 C37.34 65 36.68 65 36 65 C36 95.03 36 125.06 36 156 C24.12 156 12.24 156 0 156 C0 104.52 0 53.04 0 0 Z " fill="#060F62" transform="translate(641,160)"/>
<path d="M0 0 C12.21 0 24.42 0 37 0 C37 17.82 37 35.64 37 54 C38.65 53.34 40.3 52.68 42 52 C42 51.34 42 50.68 42 50 C44.3937297 49.01540929 46.7897507 48.03721297 49.1875 47.0625 C49.86103516 46.78470703 50.53457031 46.50691406 51.22851562 46.22070312 C63.72287694 41.16201049 83.03136059 40.72746463 95.8828125 45.73339844 C99.76489551 47.53608911 103.38875191 49.71304599 107 52 C107.94488281 52.52722656 108.88976563 53.05445313 109.86328125 53.59765625 C110.56839844 54.06042969 111.27351563 54.52320313 112 55 C112 55.66 112 56.32 112 57 C112.88945313 57.14115234 112.88945313 57.14115234 113.796875 57.28515625 C116.49142641 58.15945219 117.46322756 59.26720318 119.25 61.4375 C120.03117187 62.36369141 120.03117187 62.36369141 120.828125 63.30859375 C122 65 122 65 122 67 C123.485 67.495 123.485 67.495 125 68 C126.38671875 70.1796875 126.38671875 70.1796875 127.6875 72.875 C128.12449219 73.75929688 128.56148437 74.64359375 129.01171875 75.5546875 C130 78 130 78 130 81 C130.66 81 131.32 81 132 81 C135.31829528 87.63659057 134.15395691 97.25112097 134.125 104.5 C134.12886719 105.46808594 134.13273437 106.43617188 134.13671875 107.43359375 C134.1128878 125.1876549 134.1128878 125.1876549 130 131 C129.11265422 133.02746663 128.25899678 135.06997044 127.4375 137.125 C126.13397139 140.38179112 124.95160079 143.07259882 123 146 C122.34 146 121.68 146 121 146 C121 146.66 121 147.32 121 148 C120.34 148 119.68 148 119 148 C118.67 149.32 118.34 150.64 118 152 C117.01 152 116.02 152 115 152 C115 152.66 115 153.32 115 154 C101.96659137 166.13455286 83.50160272 167.25356505 66.65625 167.16796875 C60.77053637 166.89757806 55.53568113 166.0252492 50 164 C50 163.34 50 162.68 50 162 C49.34 161.95875 48.68 161.9175 48 161.875 C43.52974881 160.57117674 40.63219021 157.89343966 37 155 C36.67 158.63 36.34 162.26 36 166 C24.12 166 12.24 166 0 166 C0 111.22 0 56.44 0 0 Z " fill="#0A1361" transform="translate(1537,151)"/>
<path d="M0 0 C12.21 0 24.42 0 37 0 C37 54.45 37 108.9 37 165 C25.12 165 13.24 165 1 165 C1 161.04 1 157.08 1 153 C-0.546875 154.0725 -2.09375 155.145 -3.6875 156.25 C-5.07388672 157.2090625 -5.07388672 157.2090625 -6.48828125 158.1875 C-9.06739728 159.96403238 -9.06739728 159.96403238 -11.375 162.25 C-20.00515015 168.00343343 -31.05467511 167.44907304 -41 167 C-41.94359375 166.95746094 -42.8871875 166.91492188 -43.859375 166.87109375 C-49.58247336 166.45341421 -54.65219345 165.05386773 -60 163 C-60 162.34 -60 161.68 -60 161 C-60.969375 160.814375 -61.93875 160.62875 -62.9375 160.4375 C-72.05384436 157.8091991 -81.26520772 148.61496198 -86 140.625 C-87 138 -87 138 -87 136 C-87.66 136 -88.32 136 -89 136 C-91.03435531 132.27034861 -92 130.33094958 -92 126 C-92.66 126 -93.32 126 -94 126 C-98.42903859 109.11429039 -97.85712989 88.66502387 -89.625 73 C-88.78233617 71.64599836 -87.90669781 70.31198394 -87 69 C-86.47792969 68.23558594 -85.95585938 67.47117187 -85.41796875 66.68359375 C-82.54056048 62.65802257 -82.54056048 62.65802257 -81 61 C-80.34 61 -79.68 61 -79 61 C-78.67 60.01 -78.34 59.02 -78 58 C-72.86504696 53.58315342 -67.66357416 50.30374277 -61 49 C-61 48.34 -61 47.68 -61 47 C-52.50447782 43.21670583 -44.56575293 42.5896454 -35.375 42.5625 C-33.80310913 42.54799805 -33.80310913 42.54799805 -32.19946289 42.53320312 C-23.70058957 42.62383645 -13.90841629 43.52091122 -7 49 C-7 49.66 -7 50.32 -7 51 C-6.21625 51.309375 -5.4325 51.61875 -4.625 51.9375 C-2 53 -2 53 0 54 C0 36.18 0 18.36 0 0 Z " fill="#091264" transform="translate(1075,151)"/>
<path d="M0 0 C12.87 0 25.74 0 39 0 C39 20.13 39 40.26 39 61 C60.12 61 81.24 61 103 61 C102.96038804 41.29893661 102.96038804 41.29893661 102.90991211 21.59790039 C102.90699322 19.13948612 102.9044446 16.68107136 102.90234375 14.22265625 C102.89722778 12.9322644 102.89211182 11.64187256 102.88684082 10.31237793 C102.88665955 8.48531311 102.88665955 8.48531311 102.88647461 6.62133789 C102.884254 5.55766495 102.88203339 4.493992 102.87974548 3.39808655 C103 1 103 1 104 0 C116.54 0 129.08 0 142 0 C142 51.81 142 103.62 142 157 C129.13 157 116.26 157 103 157 C103 136.21 103 115.42 103 94 C81.88 94 60.76 94 39 94 C39 114.79 39 135.58 39 157 C26.13 157 13.26 157 0 157 C0 105.19 0 53.38 0 0 Z " fill="#070F62" transform="translate(1209,160)"/>
<path d="M0 0 C1.7778186 0.01293091 1.7778186 0.01293091 3.59155273 0.02612305 C18.84837808 0.18232912 31.34226036 1.7699091 45.625 7.1875 C46.95411682 7.53726758 48.28662678 7.87501638 49.625 8.1875 C49.625 8.8475 49.625 9.5075 49.625 10.1875 C50.2025 10.331875 50.78 10.47625 51.375 10.625 C53.45833333 11.14583333 55.54166667 11.66666667 57.625 12.1875 C57.625 12.8475 57.625 13.5075 57.625 14.1875 C58.16125 14.31125 58.6975 14.435 59.25 14.5625 C62.10401595 15.31355683 64.86303841 16.14409229 67.625 17.1875 C67.955 17.8475 68.285 18.5075 68.625 19.1875 C69.615 19.7753125 69.615 19.7753125 70.625 20.375 C84.41937576 28.70910202 97.92179196 41.00453461 105.625 55.1875 C106.59576826 56.71370784 107.57425367 58.23505096 108.5625 59.75 C110.625 62.93991158 110.625 62.93991158 110.625 65.1875 C111.285 65.1875 111.945 65.1875 112.625 65.1875 C113.13115298 66.45589526 113.62969099 67.72733102 114.125 69 C114.54265625 70.06154297 114.54265625 70.06154297 114.96875 71.14453125 C115.625 73.1875 115.625 73.1875 115.625 76.1875 C116.285 76.1875 116.945 76.1875 117.625 76.1875 C121.05357143 84.61607143 121.05357143 84.61607143 120.625 89.1875 C121.285 89.1875 121.945 89.1875 122.625 89.1875 C122.71064209 89.74735596 122.79628418 90.30721191 122.88452148 90.8840332 C123.27448061 93.42311208 123.66844516 95.96155368 124.0625 98.5 C124.19720703 99.38107422 124.33191406 100.26214844 124.47070312 101.16992188 C124.60283203 102.01748047 124.73496094 102.86503906 124.87109375 103.73828125 C125.05176392 104.90870972 125.05176392 104.90870972 125.23608398 106.1027832 C125.60988611 108.37029797 125.60988611 108.37029797 126.625 111.1875 C128.06554586 130.18283582 126.06495832 148.57696037 118.625 166.1875 C117.965 166.1875 117.305 166.1875 116.625 166.1875 C116.49738281 166.88488281 116.36976563 167.58226562 116.23828125 168.30078125 C115.58197909 171.38999968 114.75259591 174.35995136 113.8125 177.375 C113.33876953 178.94314453 113.33876953 178.94314453 112.85546875 180.54296875 C111.43606987 183.59354985 110.59064976 183.88814838 107.625 185.1875 C106.9236716 187.51065031 106.26014826 189.84539079 105.625 192.1875 C103.79018966 194.81739482 101.86062062 196.9590194 99.5625 199.1875 C97.46495165 201.3527112 96.15165726 203.5988203 94.625 206.1875 C92.98146105 208.12986421 91.61092652 209.1953186 89.375 210.4375 C86.23004847 212.43883279 83.9747974 214.80669307 81.40234375 217.48046875 C79.75882942 219.05896493 78.17898084 220.23940399 76.25 221.4375 C73.35274657 222.98102592 73.35274657 222.98102592 72.625 226.1875 C70.953125 227.25 70.953125 227.25 68.875 228.1875 C66.49141528 229.29085547 64.42577221 230.32381375 62.25 231.8125 C58.26912961 233.89771782 54.03047684 234.46038246 49.625 235.1875 C47.89534594 232.59301891 47.21185785 231.21642807 46.5 228.3125 C46.24863281 227.32636719 46.24863281 227.32636719 45.9921875 226.3203125 C45.5772986 223.91042589 45.56546983 221.6282369 45.625 219.1875 C46.55441406 218.74019531 47.48382813 218.29289063 48.44140625 217.83203125 C54.9051083 214.68311535 60.8557902 211.51440735 66.625 207.1875 C67.285 207.1875 67.945 207.1875 68.625 207.1875 C68.625 206.5275 68.625 205.8675 68.625 205.1875 C70.12890625 203.70703125 70.12890625 203.70703125 72.1875 202 C84.94633524 191.0542624 94.30730651 177.81547864 100.625 162.1875 C101.285 162.1875 101.945 162.1875 102.625 162.1875 C103.88909484 156.58936571 105.07765939 150.98770318 106.16015625 145.3515625 C106.625 143.1875 106.625 143.1875 107.625 140.1875 C107.8309489 135.82761362 107.81079945 131.46523613 107.81030273 127.10107422 C107.81247806 124.95910439 107.83061322 122.81765925 107.84960938 120.67578125 C107.8525459 119.29948091 107.85452896 117.92317815 107.85546875 116.546875 C107.85957764 115.30389648 107.86368652 114.06091797 107.86791992 112.78027344 C107.61208364 108.99646764 106.76860565 105.79330536 105.625 102.1875 C105.3065339 100.48395911 105.01311962 98.77546243 104.75 97.0625 C103.00193211 87.25987312 100.37656163 78.52522303 94.796875 70.2109375 C93.625 68.1875 93.625 68.1875 93.625 65.1875 C92.965 65.1875 92.305 65.1875 91.625 65.1875 C91.625 64.5275 91.625 63.8675 91.625 63.1875 C90.965 63.1875 90.305 63.1875 89.625 63.1875 C88.68098958 61.4296875 87.73697917 59.671875 86.79296875 57.9140625 C85.57736507 55.88247635 85.57736507 55.88247635 82.625 54.1875 C82.00625 53.07375 82.00625 53.07375 81.375 51.9375 C78.42692628 47.30481272 74.1560394 44.20819293 69.625 41.1875 C69.295 40.1975 68.965 39.2075 68.625 38.1875 C66.74936849 37.18269741 64.86481526 36.19077071 62.9375 35.2890625 C60.60556498 34.1782421 58.3725583 32.95955557 56.125 31.6875 C54.98224609 31.05328125 54.98224609 31.05328125 53.81640625 30.40625 C52.48540734 29.66601531 51.15860512 28.91807276 49.83984375 28.15625 C42.89631326 24.37164437 35.17126176 22.42207266 27.625 20.1875 C27.625 19.5275 27.625 18.8675 27.625 18.1875 C8.16709686 15.91604667 -15.5289134 14.73423392 -33.41796875 24.27734375 C-35.375 25.1875 -35.375 25.1875 -38.375 25.1875 C-38.375 25.8475 -38.375 26.5075 -38.375 27.1875 C-39.468125 27.538125 -40.56125 27.88875 -41.6875 28.25 C-47.84203489 30.54696034 -54.45371174 34.11979873 -59.01171875 38.90625 C-60.375 40.1875 -60.375 40.1875 -63.375 40.1875 C-63.601875 40.785625 -63.82875 41.38375 -64.0625 42 C-65.375 44.1875 -65.375 44.1875 -67.5 45.4375 C-74.31880602 49.58807758 -78.54038607 54.76351112 -81.375 62.1875 C-82.90003549 64.69642935 -84.5379702 66.87943691 -86.375 69.1875 C-87.035 69.1875 -87.695 69.1875 -88.375 69.1875 C-88.55675781 69.75597656 -88.73851562 70.32445312 -88.92578125 70.91015625 C-90.8973559 76.96642915 -92.81965555 82.85448332 -96.375 88.1875 C-96.7989284 90.36255747 -97.14543101 92.55334664 -97.4375 94.75 C-98.28034351 100.99818702 -98.28034351 100.99818702 -99.375 103.1875 C-102.53994496 124.29732611 -100.46648814 145.26243712 -92.28027344 164.99609375 C-91.28571725 167.40362781 -90.42460307 169.83373049 -89.625 172.3125 C-89.38265625 173.05757812 -89.1403125 173.80265625 -88.890625 174.5703125 C-88.72046875 175.10398437 -88.5503125 175.63765625 -88.375 176.1875 C-87.715 176.1875 -87.055 176.1875 -86.375 176.1875 C-85.88 178.6625 -85.88 178.6625 -85.375 181.1875 C-84.715 181.1875 -84.055 181.1875 -83.375 181.1875 C-82.31500912 182.60282874 -81.32818597 184.07314692 -80.375 185.5625 C-76.35508092 191.49146015 -71.53253361 196.25384647 -66.375 201.1875 C-65.529375 202.04472656 -64.68375 202.90195312 -63.8125 203.78515625 C-58.59963637 208.92283435 -53.2260978 212.61833832 -46.375 215.1875 C-46.375 215.8475 -46.375 216.5075 -46.375 217.1875 C-45.055 217.1875 -43.735 217.1875 -42.375 217.1875 C-42.375 217.8475 -42.375 218.5075 -42.375 219.1875 C-41.240625 219.496875 -40.10625 219.80625 -38.9375 220.125 C-35.375 221.1875 -35.375 221.1875 -34.375 222.1875 C-32.36188551 222.58319108 -30.33902792 222.93002191 -28.3125 223.25 C-27.20777344 223.42660156 -26.10304688 223.60320312 -24.96484375 223.78515625 C-24.11019531 223.91792969 -23.25554687 224.05070313 -22.375 224.1875 C-22.19324219 222.93195313 -22.01148438 221.67640625 -21.82421875 220.3828125 C-20.39465545 210.76950333 -18.77961168 201.64050088 -15.375 192.50390625 C-13.89029823 187.58003202 -13.2878603 182.55794624 -12.60742188 177.46875 C-12.49076172 176.69015625 -12.37410156 175.9115625 -12.25390625 175.109375 C-12.1566626 174.40393555 -12.05941895 173.69849609 -11.95922852 172.97167969 C-11.375 171.1875 -11.375 171.1875 -8.375 169.1875 C-4.85775862 169.70474138 -4.85775862 169.70474138 -3.375 171.1875 C-3.10040544 172.6783439 -2.88337324 174.17987623 -2.69140625 175.68359375 C-2.56967041 176.62557617 -2.44793457 177.56755859 -2.32250977 178.53808594 C-2.19545654 179.55676758 -2.06840332 180.57544922 -1.9375 181.625 C-1.80335693 182.66817383 -1.66921387 183.71134766 -1.53100586 184.78613281 C-0.83315674 190.2766066 -0.20121732 195.76734082 0.34594727 201.2746582 C1.11253878 208.9310666 2.44353544 216.26723768 4.15722656 223.76660156 C6.12820465 232.79004362 6.76915715 241.92902844 7.39135742 251.12890625 C7.57524219 253.38360224 7.57524219 253.38360224 8.625 256.1875 C8.76903348 257.52113703 8.87090423 258.85968046 8.94140625 260.19921875 C8.98330078 260.95654297 9.02519531 261.71386719 9.06835938 262.49414062 C9.10767578 263.27982422 9.14699219 264.06550781 9.1875 264.875 C9.23068359 265.67228516 9.27386719 266.46957031 9.31835938 267.29101562 C9.42427368 269.25631447 9.52512551 271.22188496 9.625 273.1875 C10.285 273.1875 10.945 273.1875 11.625 273.1875 C11.73457031 271.94355469 11.84414063 270.69960938 11.95703125 269.41796875 C12.11668286 267.73693116 12.27686801 266.05594419 12.4375 264.375 C12.54288086 263.15393555 12.54288086 263.15393555 12.65039062 261.90820312 C13.18960634 256.40820284 14.34543891 251.37278293 15.8737793 246.0690918 C17.20843032 240.94953183 17.8829519 235.7324503 18.625 230.5 C20.07279006 220.67771055 21.68348973 210.92446816 23.625 201.1875 C26 200.5625 26 200.5625 28.625 200.1875 C31.48670278 203.04920278 32.05873261 206.51271075 33.125 210.3125 C33.33769531 211.04726563 33.55039062 211.78203125 33.76953125 212.5390625 C34.80808491 216.15807156 35.78436906 219.78430886 36.6796875 223.44140625 C37.60953794 227.12622681 38.76178406 230.63444551 40.0390625 234.20703125 C40.625 236.1875 40.625 236.1875 40.625 239.1875 C61.085 239.1875 81.545 239.1875 102.625 239.1875 C102.955 240.8375 103.285 242.4875 103.625 244.1875 C102.625 245.1875 102.625 245.1875 99.96116638 245.30775452 C98.1791256 245.3044236 98.1791256 245.3044236 96.36108398 245.30102539 C95.3806311 245.30124443 95.3806311 245.30124443 94.38037109 245.3014679 C92.21057872 245.30076883 90.04087121 245.29297678 87.87109375 245.28515625 C86.37036689 245.28329205 84.86963943 245.28186816 83.36891174 245.28086853 C79.41181774 245.27704352 75.45476022 245.2672134 71.49768066 245.25616455 C67.46265151 245.24595006 63.42761647 245.24137083 59.39257812 245.23632812 C51.47003531 245.22559111 43.54752219 245.2085149 35.625 245.1875 C34.97800801 243.59673265 34.33366276 242.00488866 33.69042969 240.41259766 C33.33132507 239.52625641 32.97222046 238.63991516 32.60223389 237.72671509 C31.44339783 234.71563039 30.60550477 231.70367052 29.875 228.5625 C29.63265625 227.53898438 29.3903125 226.51546875 29.140625 225.4609375 C28.97046875 224.71070313 28.8003125 223.96046875 28.625 223.1875 C27.08280706 228.23583992 26.02662878 233.18950134 25.22265625 238.40234375 C25.03780922 239.56244713 25.03780922 239.56244713 24.84922791 240.74598694 C24.45792467 243.20503544 24.0722879 245.6649243 23.6875 248.125 C23.181279 251.34291155 22.67213687 254.56034357 22.16015625 257.77734375 C21.97206894 258.96171524 21.97206894 258.96171524 21.78018188 260.17001343 C20.73650037 266.66459795 19.53662017 273.12165715 18.27124023 279.57641602 C17.79131182 282.25817692 17.41047053 284.88036824 17.10180664 287.58178711 C16.625 291.1875 16.625 291.1875 15.625 292.1875 C15.23351239 293.69915654 14.88527543 295.22219632 14.5625 296.75 C14.38589844 297.57628906 14.20929688 298.40257812 14.02734375 299.25390625 C13.89457031 299.89199219 13.76179687 300.53007812 13.625 301.1875 C11.96885343 301.56968767 10.30042976 301.90145102 8.625 302.1875 C7.0792829 300.6417829 7.24459608 298.99213794 6.9765625 296.84765625 C6.85796875 295.94853516 6.739375 295.04941406 6.6171875 294.12304688 C6.37694193 292.24325312 6.13983602 290.36305477 5.90625 288.48242188 C5.29399141 283.88071239 4.51626057 279.5640369 3.08984375 275.140625 C1.47511522 270.06855432 0.93966471 265.16721647 0.5625 259.875 C-0.04981369 251.90279698 -1.0996675 244.08065086 -2.375 236.1875 C-3.09415467 231.60579405 -3.79908142 227.02202669 -4.5 222.4375 C-4.68175781 221.28378906 -4.86351562 220.13007813 -5.05078125 218.94140625 C-6.01146147 212.60669531 -6.57946829 206.59417313 -6.375 200.1875 C-10.01863983 203.39001221 -10.43575617 207.03069274 -11.3125 211.625 C-12.95924952 219.64535462 -14.68878239 227.81506477 -18.375 235.1875 C-18.60122081 236.89113822 -18.78388473 238.60078701 -18.9375 240.3125 C-19.06318359 241.67761719 -19.06318359 241.67761719 -19.19140625 243.0703125 C-19.25199219 243.76898438 -19.31257813 244.46765625 -19.375 245.1875 C-32.00495485 245.21062132 -44.6349047 245.22841401 -57.26487637 245.23931217 C-63.12882164 245.24454146 -68.99275249 245.25163994 -74.85668945 245.26293945 C-80.51061712 245.2737667 -86.16453087 245.27977649 -91.81846809 245.28237724 C-93.9807361 245.28423179 -96.14300331 245.28785295 -98.30526543 245.29323006 C-101.32258657 245.30043833 -104.33984943 245.30149103 -107.35717773 245.30102539 C-108.71231728 245.3064183 -108.71231728 245.3064183 -110.09483337 245.31192017 C-116.26094784 245.30155216 -116.26094784 245.30155216 -117.375 244.1875 C-117.5 241.6875 -117.5 241.6875 -117.375 239.1875 C-115.46114588 237.27364588 -112.0039211 238.01220803 -109.46850586 237.98217773 C-108.74659561 237.97227814 -108.02468536 237.96237854 -107.28089905 237.95217896 C-104.88391449 237.92047701 -102.48691008 237.89577241 -100.08984375 237.87109375 C-98.43216931 237.85053171 -96.7745002 237.82953545 -95.11683655 237.80812073 C-90.74551705 237.7528225 -86.37414963 237.70344756 -82.00274658 237.65527344 C-77.54540726 237.60511484 -73.08813787 237.5493994 -68.63085938 237.49414062 C-59.8789653 237.38646432 -51.12701288 237.28504055 -42.375 237.1875 C-46.335 235.2075 -50.295 233.2275 -54.375 231.1875 C-54.375 230.5275 -54.375 229.8675 -54.375 229.1875 C-55.179375 229.0328125 -55.179375 229.0328125 -56 228.875 C-59.00002044 228.00657303 -61.6129535 226.63129704 -64.375 225.1875 C-64.375 224.5275 -64.375 223.8675 -64.375 223.1875 C-65.035 222.98125 -65.695 222.775 -66.375 222.5625 C-77.37935397 217.51883777 -86.75576347 207.1163548 -93.375 197.1875 C-93.86605225 196.70071777 -94.35710449 196.21393555 -94.86303711 195.71240234 C-96.40334064 194.15891682 -97.4430856 192.66083091 -98.56640625 190.7890625 C-99.14745117 189.82226562 -99.14745117 189.82226562 -99.74023438 188.8359375 C-100.13533203 188.16820312 -100.53042969 187.50046875 -100.9375 186.8125 C-101.33646484 186.1525 -101.73542969 185.4925 -102.14648438 184.8125 C-107.375 176.04884443 -107.375 176.04884443 -107.375 171.1875 C-108.035 171.1875 -108.695 171.1875 -109.375 171.1875 C-109.705 168.8775 -110.035 166.5675 -110.375 164.1875 C-111.035 164.1875 -111.695 164.1875 -112.375 164.1875 C-121.92905966 134.77996885 -122.46100295 101.17891611 -108.375 73.1875 C-107.88 72.1975 -107.88 72.1975 -107.375 71.1875 C-106.715 71.1875 -106.055 71.1875 -105.375 71.1875 C-105.2821875 69.7334375 -105.2821875 69.7334375 -105.1875 68.25 C-103.6598725 58.1797187 -95.51865872 49.89953989 -89.375 42.1875 C-88.65441406 41.23359375 -87.93382812 40.2796875 -87.19140625 39.296875 C-86.59199219 38.60078125 -85.99257813 37.9046875 -85.375 37.1875 C-84.715 37.1875 -84.055 37.1875 -83.375 37.1875 C-83.375 36.5275 -83.375 35.8675 -83.375 35.1875 C-82.715 35.1875 -82.055 35.1875 -81.375 35.1875 C-81.375 34.5275 -81.375 33.8675 -81.375 33.1875 C-75.89880952 28.1875 -75.89880952 28.1875 -73.375 28.1875 C-73.375 27.5275 -73.375 26.8675 -73.375 26.1875 C-69.91346154 23.1875 -69.91346154 23.1875 -67.375 23.1875 C-67.375 22.5275 -67.375 21.8675 -67.375 21.1875 C-64.46951118 19.14580515 -62.97357954 18.1875 -59.375 18.1875 C-59.375 17.5275 -59.375 16.8675 -59.375 16.1875 C-50.65272799 11.65934177 -41.84507809 7.8852735 -32.48046875 4.8984375 C-30.32285732 4.19993772 -30.32285732 4.19993772 -28.08569336 3.21264648 C-19.14599579 -0.16822266 -9.42849422 -0.10940732 0 0 Z " fill="#6A75FD" transform="translate(447.375,121.8125)"/>
<path d="M0 0 C1.02867187 -0.00773438 2.05734375 -0.01546875 3.1171875 -0.0234375 C11.67270486 -0.00166774 19.06183139 1.33677142 27.0625 4.375 C28.00222656 4.72820312 28.94195313 5.08140625 29.91015625 5.4453125 C30.94462891 5.84363281 30.94462891 5.84363281 32 6.25 C32 6.91 32 7.57 32 8.25 C32.70640625 8.33636719 33.4128125 8.42273438 34.140625 8.51171875 C37.63313579 9.41347359 39.83987565 10.94282835 42.75 13.0625 C43.71421875 13.74957031 44.6784375 14.43664062 45.671875 15.14453125 C48.09308976 17.33418688 48.50135863 18.15033741 49 21.25 C49.61875 21.559375 50.2375 21.86875 50.875 22.1875 C53.81779433 23.65889716 54.59551076 25.30726064 56 28.25 C56.6875 31.5625 56.6875 31.5625 57 34.25 C57.66 34.25 58.32 34.25 59 34.25 C62 46.25 62 46.25 62 72.25 C32.63 72.25 3.26 72.25 -27 72.25 C-26.01 75.88 -25.02 79.51 -24 83.25 C-23.01 83.58 -22.02 83.91 -21 84.25 C-19.31288577 85.8959651 -17.6454378 87.56237149 -16 89.25 C-15.01 89.745 -15.01 89.745 -14 90.25 C-14 91.24 -14 92.23 -14 93.25 C-1.47098413 94.86664721 12.08396558 96.11214512 24 91.25 C24.99 90.92 25.98 90.59 27 90.25 C27 89.59 27 88.93 27 88.25 C28.32 87.92 29.64 87.59 31 87.25 C31 86.59 31 85.93 31 85.25 C32.65 84.59 34.3 83.93 36 83.25 C39.65020279 86.86030987 43.20232132 90.54281694 46.6875 94.3125 C47.17283203 94.82876953 47.65816406 95.34503906 48.15820312 95.87695312 C50.58903481 98.50895709 52.63310326 100.9166904 54 104.25 C52.71372289 105.42260611 51.42080217 106.5879283 50.125 107.75 C49.40570312 108.3996875 48.68640625 109.049375 47.9453125 109.71875 C46 111.25 46 111.25 44 111.25 C44 111.91 44 112.57 44 113.25 C42.35 113.58 40.7 113.91 39 114.25 C39 114.91 39 115.57 39 116.25 C38.01 116.25 37.02 116.25 36 116.25 C36 116.91 36 117.57 36 118.25 C34.33535403 118.88036226 32.66815224 119.50397593 31 120.125 C30.071875 120.47304688 29.14375 120.82109375 28.1875 121.1796875 C20.22837899 123.85223549 13.49588577 124.53678017 5.125 124.4375 C3.58779297 124.4365332 3.58779297 124.4365332 2.01953125 124.43554688 C-17.21716011 124.32555309 -33.04662996 119.05862554 -47 105.25 C-49.42472935 102.65485795 -51.75720529 100.00381122 -54 97.25 C-54.56074219 96.59386719 -55.12148438 95.93773437 -55.69921875 95.26171875 C-57 93.25 -57 93.25 -57 89.25 C-57.66 89.25 -58.32 89.25 -59 89.25 C-59.48473678 87.56409158 -59.96248926 85.87617455 -60.4375 84.1875 C-60.83775391 82.77791016 -60.83775391 82.77791016 -61.24609375 81.33984375 C-64.784446 66.83809957 -65.41347291 46.65871622 -58 33.25 C-57.34 33.25 -56.68 33.25 -56 33.25 C-56 31.93 -56 30.61 -56 29.25 C-55.34 29.25 -54.68 29.25 -54 29.25 C-53.814375 28.59 -53.62875 27.93 -53.4375 27.25 C-48.22297996 16.36752339 -37.09180118 8.98587317 -26.09375 4.84375 C-24 4.25 -24 4.25 -21 4.25 C-21 3.59 -21 2.93 -21 2.25 C-13.88726028 0.38290582 -7.33720026 -0.05516692 0 0 Z " fill="#081162" transform="translate(905,193.75)"/>
<path d="M0 0 C5.39346988 -0.02464849 10.78690725 -0.04283531 16.18041992 -0.05493164 C18.01668875 -0.05997231 19.85295354 -0.06680477 21.68920898 -0.07543945 C24.32276401 -0.08751672 26.95626616 -0.09323081 29.58984375 -0.09765625 C30.41588608 -0.10281754 31.24192841 -0.10797882 32.09300232 -0.11329651 C34.06236368 -0.11349205 36.03161614 -0.06204152 38 0 C39.8046094 1.8046094 39.16263984 4.56390849 39.18945312 6.99755859 C39.20617065 8.28334808 39.22288818 9.56913757 39.2401123 10.89389038 C39.24679428 11.58641277 39.25347626 12.27893517 39.26036072 12.99244308 C39.28139247 15.16314171 39.30842555 17.33369188 39.33703613 19.50430298 C39.39684139 24.12781063 39.44877585 28.75139051 39.5 33.375 C39.55949411 38.7004891 39.62228763 44.02590907 39.69187927 49.3512764 C39.7181266 51.4730431 39.73915276 53.59481765 39.7598877 55.71664429 C39.14889071 71.69421072 39.14889071 71.69421072 45 86 C48.08601755 87.58849847 48.08601755 87.58849847 51 88 C51 88.66 51 89.32 51 90 C64.29712558 90.50142924 64.29712558 90.50142924 77 87 C77.99 86.67 78.98 86.34 80 86 C80 85.34 80 84.68 80 84 C80.66 84 81.32 84 82 84 C82.495 82.515 82.495 82.515 83 81 C83.66 80.67 84.32 80.34 85 80 C88.70715976 71.76925312 88.47593475 63.44577972 88.51171875 54.58984375 C88.52858993 53.01085536 88.54674341 51.43188021 88.56611633 49.85292053 C88.6133581 45.72502783 88.64333361 41.5971888 88.66955566 37.46911621 C88.6994925 33.24557909 88.74597729 29.02222643 88.79101562 24.79882812 C88.87675441 16.53264328 88.94422944 8.26644114 89 0 C94.25105442 -0.02464928 99.50207545 -0.04283568 104.75317383 -0.05493164 C106.54094021 -0.05997218 108.32870245 -0.06680454 110.11645508 -0.07543945 C112.68051168 -0.0875173 115.24451397 -0.09323094 117.80859375 -0.09765625 C118.6127623 -0.10281754 119.41693085 -0.10797882 120.24546814 -0.11329651 C122.16401715 -0.11349215 124.08245368 -0.06201983 126 0 C127 1 127 1 127.12304783 2.9971323 C127.12212604 3.88113177 127.12120424 4.76513124 127.12025452 5.67591858 C127.12231651 7.19252831 127.12231651 7.19252831 127.12442017 8.73977661 C127.11902725 10.41751663 127.11902725 10.41751663 127.11352539 12.12915039 C127.11367142 13.29972488 127.11381744 14.47029938 127.1139679 15.67634583 C127.11338895 18.89520943 127.10835991 22.11403004 127.10139394 25.33288503 C127.09515957 28.693474 127.09455654 32.05406373 127.09336853 35.41465759 C127.09025546 41.78242342 127.0820424 48.15017216 127.07201904 54.51793045 C127.06085715 61.76569729 127.05534726 69.01346493 127.05032361 76.26123822 C127.03985977 91.17416991 127.02151459 106.08707939 127 121 C114.79 121 102.58 121 90 121 C90 117.04 90 113.08 90 109 C88.35 109.66 86.7 110.32 85 111 C85 111.66 85 112.32 85 113 C84.34 113 83.68 113 83 113 C82.505 114.485 82.505 114.485 82 116 C68.54729208 123.17356067 54.31333899 126.68185871 39.1875 122.75 C34.01467944 121.12669745 28.98358588 119.12964516 24 117 C24 116.34 24 115.68 24 115 C23.46375 114.938125 22.9275 114.87625 22.375 114.8125 C18.47007398 113.47660426 14.8683015 110.73660299 13 107 C12.01 106.67 11.02 106.34 10 106 C8.9375 104.3984375 8.9375 104.3984375 8 102.375 C7.66097656 101.65183594 7.32195312 100.92867188 6.97265625 100.18359375 C5.61488606 97.13542694 4.28742866 94.07863375 3 91 C2.48237595 89.94952988 1.96475189 88.89905975 1.43144226 87.8167572 C-0.33226567 83.68080362 -0.40366188 79.94130868 -0.34057617 75.49438477 C-0.34101425 74.67406265 -0.34145233 73.85374054 -0.34190369 73.00856018 C-0.33982735 70.31925979 -0.31655144 67.63059663 -0.29296875 64.94140625 C-0.28736868 63.06811361 -0.28310052 61.19481656 -0.28010559 59.32151794 C-0.2686892 54.40760012 -0.23924974 49.49395124 -0.20599365 44.58013916 C-0.17522349 39.55932248 -0.16158544 34.53846206 -0.14648438 29.51757812 C-0.11437687 19.67826771 -0.06321946 9.83915628 0 0 Z " fill="#081162" transform="translate(1379,195)"/>
<path d="M0 0 C5.24550694 0.18818627 8.59651272 0.90724046 12.36767578 4.65625 C14.60567537 7.28738962 16.58122914 10.01800406 18.45605469 12.91723633 C19.11734375 13.90723633 19.77863281 14.89723633 20.45996094 15.91723633 C21.6364028 17.74669236 22.78776093 19.59260766 23.90917969 21.45629883 C25.69980099 24.30501453 27.73259451 26.73261474 29.97949219 29.22583008 C32.17119739 31.73643419 34.1046837 34.42498979 36.06152344 37.12036133 C37.42138752 38.95649673 37.42138752 38.95649673 39.10839844 40.53442383 C40.45605469 41.91723633 40.45605469 41.91723633 40.83105469 43.79223633 C41.78364857 47.03105553 44.02069826 48.65583394 46.45605469 50.91723633 C46.97167969 51.53598633 47.48730469 52.15473633 48.01855469 52.79223633 C49.40728218 54.09707922 49.40728218 54.09707922 51.39355469 54.04223633 C54.07897576 52.5774612 54.99873223 50.59004772 56.33105469 47.90161133 C57.78225426 45.34185653 59.60276068 43.20160787 61.45605469 40.91723633 C63.53843022 38.00583959 65.59842855 35.07992121 67.65136719 32.14770508 C68.24691406 31.41165039 68.84246094 30.6755957 69.45605469 29.91723633 C70.11605469 29.91723633 70.77605469 29.91723633 71.45605469 29.91723633 C71.68292969 29.40676758 71.90980469 28.89629883 72.14355469 28.37036133 C73.97914825 24.93954954 76.20289426 21.83453612 78.45605469 18.66723633 C78.90722656 18.01754883 79.35839844 17.36786133 79.82324219 16.69848633 C80.98210437 15.06647924 82.21386971 13.48675383 83.45605469 11.91723633 C84.11605469 11.91723633 84.77605469 11.91723633 85.45605469 11.91723633 C86.11605469 10.26723633 86.77605469 8.61723633 87.45605469 6.91723633 C88.11605469 6.91723633 88.77605469 6.91723633 89.45605469 6.91723633 C89.74480469 6.29848633 90.03355469 5.67973633 90.33105469 5.04223633 C91.45605469 2.91723633 91.45605469 2.91723633 93.45605469 0.91723633 C96.39341325 0.47295986 99.36390757 0.59312777 102.33105469 0.60473633 C103.14703125 0.58862305 103.96300781 0.57250977 104.80371094 0.5559082 C105.59390625 0.55526367 106.38410156 0.55461914 107.19824219 0.55395508 C107.91866699 0.55097412 108.6390918 0.54799316 109.38134766 0.54492188 C112.35287118 1.07817362 113.39235616 1.64675997 115.45605469 3.91723633 C116.06768782 7.17284156 115.96003416 10.40989361 115.91015625 13.71289062 C115.91074036 14.71794647 115.91132446 15.72300232 115.91192627 16.7585144 C115.90913556 20.08651046 115.87799615 23.41361515 115.84667969 26.74145508 C115.83922083 29.04644786 115.83352622 31.35144698 115.82952881 33.65644836 C115.81424464 39.72784891 115.77493843 45.79886766 115.73071289 51.87011719 C115.68982041 58.0635054 115.67153065 64.2569552 115.65136719 70.45043945 C115.60844722 82.60620631 115.54016193 94.76168959 115.45605469 106.91723633 C113.0716676 108.10942987 111.57949467 108.04639655 108.92089844 108.05004883 C108.02951172 108.05133789 107.138125 108.05262695 106.21972656 108.05395508 C104.82077148 108.0481543 104.82077148 108.0481543 103.39355469 108.04223633 C102.45705078 108.04610352 101.52054687 108.0499707 100.55566406 108.05395508 C99.22051758 108.05202148 99.22051758 108.05202148 97.85839844 108.05004883 C97.03847412 108.0489209 96.2185498 108.04779297 95.3737793 108.04663086 C93.45605469 107.91723633 93.45605469 107.91723633 92.45605469 106.91723633 C92.36176127 104.73917914 92.33862931 102.55802353 92.3425293 100.37792969 C92.34238327 99.69503372 92.34223724 99.01213776 92.34208679 98.30854797 C92.34278592 96.04136018 92.35057829 93.77425359 92.35839844 91.50708008 C92.36026262 89.93909246 92.36168652 88.37110426 92.36268616 86.80311584 C92.36651134 82.6684713 92.37634163 78.53386167 92.38739014 74.39923096 C92.39760424 70.18323234 92.40218377 65.96722811 92.40722656 61.7512207 C92.4179639 53.47320986 92.43504032 45.19522743 92.45605469 36.91723633 C91.48925781 37.69067383 90.52246094 38.46411133 89.52636719 39.26098633 C88.98254395 39.69604492 88.4387207 40.13110352 87.87841797 40.5793457 C85.91811676 42.42322669 85.33618145 44.40258842 84.45605469 46.91723633 C82.04184913 50.21665059 79.34026633 53.03302469 76.45605469 55.91723633 C75.96105469 56.90723633 75.96105469 56.90723633 75.45605469 57.91723633 C74.79605469 57.91723633 74.13605469 57.91723633 73.45605469 57.91723633 C73.22917969 58.61848633 73.00230469 59.31973633 72.76855469 60.04223633 C71.17134992 63.54087534 68.9481734 65.99963393 66.45605469 68.91723633 C65.99585938 69.69454102 65.53566406 70.4718457 65.06152344 71.27270508 C62.16369469 76.04601423 58.64874336 80.22767029 54.45605469 83.91723633 C50.34876049 84.80715007 48.6226532 84.41720712 44.83105469 82.79223633 C41.87159285 80.45581909 39.81930268 77.85532842 37.45605469 74.91723633 C36.46605469 74.42223633 36.46605469 74.42223633 35.45605469 73.91723633 C34.83105469 71.35473633 34.83105469 71.35473633 34.45605469 68.91723633 C33.79605469 68.91723633 33.13605469 68.91723633 32.45605469 68.91723633 C31.86630859 67.61592773 31.86630859 67.61592773 31.26464844 66.28833008 C29.35414107 62.72727639 27.17402916 60.01855749 24.51855469 56.97973633 C20.94218053 52.81842916 18.02662017 48.76176358 15.45605469 43.91723633 C14.71355469 42.98911133 13.97105469 42.06098633 13.20605469 41.10473633 C11.45605469 38.91723633 11.45605469 38.91723633 11.45605469 36.91723633 C10.46605469 36.91723633 9.47605469 36.91723633 8.45605469 36.91723633 C8.45605469 60.01723633 8.45605469 83.11723633 8.45605469 106.91723633 C1.85605469 106.91723633 -4.74394531 106.91723633 -11.54394531 106.91723633 C-13.92693939 104.53424225 -13.794646 104.05713441 -13.7979126 100.81787109 C-13.80637207 99.53071701 -13.80637207 99.53071701 -13.81500244 98.21755981 C-13.81095398 97.27411713 -13.80690552 96.33067444 -13.80273438 95.35864258 C-13.80623901 94.36669891 -13.80974365 93.37475525 -13.81335449 92.35275269 C-13.8221838 89.06167682 -13.81631838 85.77081452 -13.80957031 82.47973633 C-13.81091662 80.20052041 -13.81285686 77.92130477 -13.81536865 75.64208984 C-13.81832154 70.86040519 -13.81401694 66.07879514 -13.8046875 61.29711914 C-13.79329292 55.15645916 -13.79985151 49.01597399 -13.81183243 42.87532043 C-13.81904655 38.16742629 -13.81676515 33.45957384 -13.81157684 28.75167847 C-13.81023911 26.48696879 -13.81189237 24.22225536 -13.81653595 21.95755005 C-13.82159381 18.79687415 -13.81390129 15.63648456 -13.80273438 12.47583008 C-13.80678284 11.53238739 -13.8108313 10.5889447 -13.81500244 9.61691284 C-13.80936279 8.75881012 -13.80372314 7.9007074 -13.7979126 7.01660156 C-13.79678152 5.89498878 -13.79678152 5.89498878 -13.79562759 4.75071716 C-12.97019398 -1.26248607 -4.55348011 0.07378719 0 0 Z " fill="#6A76FD" transform="translate(400.5439453125,192.082763671875)"/>
<path d="M0 0 C12.21 0 24.42 0 37 0 C38 1 38 1 38.12304783 2.9971323 C38.12166514 4.32313151 38.12166514 4.32313151 38.12025452 5.67591858 C38.12162918 6.68699173 38.12300385 7.69806488 38.12442017 8.73977661 C38.11902725 10.41751663 38.11902725 10.41751663 38.11352539 12.12915039 C38.11367142 13.29972488 38.11381744 14.47029938 38.1139679 15.67634583 C38.11338895 18.89520943 38.10835991 22.11403004 38.10139394 25.33288503 C38.09515957 28.693474 38.09455654 32.05406373 38.09336853 35.41465759 C38.09025546 41.78242342 38.0820424 48.15017216 38.07201904 54.51793045 C38.06085715 61.76569729 38.05534726 69.01346493 38.05032361 76.26123822 C38.03985977 91.17416991 38.02151459 106.08707939 38 121 C25.46 121 12.92 121 0 121 C0 81.07 0 41.14 0 0 Z " fill="#0F1768" transform="translate(1141,195)"/>
<path d="M0 0 C0 0.66 0 1.32 0 2 C0.78375 2.144375 1.5675 2.28875 2.375 2.4375 C5 3 5 3 7 4 C7 4.66 7 5.32 7 6 C7.66 6 8.32 6 9 6 C9 6.66 9 7.32 9 8 C9.66 8 10.32 8 11 8 C11 8.66 11 9.32 11 10 C11.66 10 12.32 10 13 10 C13 10.66 13 11.32 13 12 C13.66 12 14.32 12 15 12 C15 12.99 15 13.98 15 15 C15.66 15 16.32 15 17 15 C18.82008608 20.45300689 19.33654415 25.26787464 19.3125 31 C19.32861328 31.76828125 19.34472656 32.5365625 19.36132812 33.328125 C19.36583067 38.62311489 18.38414436 42.26945498 16 47 C15.34 47 14.68 47 14 47 C13.67 48.32 13.34 49.64 13 51 C12.34 51 11.68 51 11 51 C10.34 52.32 9.68 53.64 9 55 C8.34 55 7.68 55 7 55 C7 55.66 7 56.32 7 57 C-2.1990557 61.92042514 -13.82491984 62.81420256 -23.9375 59.9375 C-31.05325258 57.01615525 -35.6880152 52.41237277 -39 45.5 C-42.77757315 35.36287609 -42.40371541 22.87383093 -38.08984375 12.89453125 C-36.57365483 10.25886234 -34.38926181 8.8378937 -32 7 C-31.67 6.34 -31.34 5.68 -31 5 C-29.68 5 -28.36 5 -27 5 C-27 4.01 -27 3.02 -27 2 C-25.35 1.67 -23.7 1.34 -22 1 C-22 0.34 -22 -0.32 -22 -1 C-14.71806432 -3.13171419 -7.07567549 -2.51579573 0 0 Z " fill="#FAFAFB" transform="translate(1615,226)"/>
<path d="M0 0 C1.97977579 1.89431784 3.38778893 3.75267548 5 6 C5.76957031 6.72123047 5.76957031 6.72123047 6.5546875 7.45703125 C11.08757366 12.29619351 10.20329011 21.07890903 10.25 27.3125 C10.25926514 28.10148682 10.26853027 28.89047363 10.27807617 29.70336914 C10.24003448 36.68439342 10.24003448 36.68439342 8 40 C7.34 40 6.68 40 6 40 C5.731875 40.7425 5.46375 41.485 5.1875 42.25 C4.04723249 44.89061949 2.90619694 46.85552844 1 49 C0.34 49 -0.32 49 -1 49 C-1 49.66 -1 50.32 -1 51 C-4.36683915 53.43160605 -5.73350364 54 -10 54 C-10 54.66 -10 55.32 -10 56 C-13.61867559 57.2062252 -16.92506251 57.10816918 -20.6875 57.0625 C-21.7403418 57.05573242 -21.7403418 57.05573242 -22.81445312 57.04882812 C-24.54300538 57.03706927 -26.27151365 57.01913454 -28 57 C-28 56.34 -28 55.68 -28 55 C-29.4540625 55.061875 -29.4540625 55.061875 -30.9375 55.125 C-36.20747483 54.43385576 -38.96516431 50.23855974 -42.27734375 46.4453125 C-44 44 -44 44 -44 41 C-44.66 41 -45.32 41 -46 41 C-48.52830853 35.87667296 -49.45020348 31.75049725 -49.3125 26 C-49.31572266 25.32710938 -49.31894531 24.65421875 -49.32226562 23.9609375 C-49.2649408 18.5619812 -48.95613105 12.95613105 -45 9 C-44.3574765 6.93125966 -44.3574765 6.93125966 -44 5 C-43.34 5 -42.68 5 -42 5 C-41.7525 4.4225 -41.505 3.845 -41.25 3.25 C-39.06058089 -0.6909544 -37.05169944 -2.65360197 -32.71484375 -4.08203125 C-20.67940454 -6.40946365 -10.58903565 -7.18062996 0 0 Z " fill="#FAFAFB" transform="translate(1065,231)"/>
<path d="M0 0 C0 0.66 0 1.32 0 2 C0.66 2 1.32 2 2 2 C5.69966733 5.4052641 8.68563548 8.81298543 9 14 C9.66 14 10.32 14 11 14 C11.02710123 16.5625718 11.04688771 19.12485365 11.0625 21.6875 C11.07087891 22.40873047 11.07925781 23.12996094 11.08789062 23.87304688 C11.10543632 27.71555382 10.93524221 31.26639526 10 35 C9.34 35 8.68 35 8 35 C7.87625 36.010625 7.7525 37.02125 7.625 38.0625 C6.27151922 42.97513395 2.45949146 45.0013717 -1.58984375 47.71484375 C-4 49 -4 49 -7 49 C-7.33 49.99 -7.66 50.98 -8 52 C-25.6439913 52.77085399 -25.6439913 52.77085399 -32 48 C-32.58394531 47.57976562 -33.16789062 47.15953125 -33.76953125 46.7265625 C-36.50548812 44.61212276 -37.89038714 43.32883857 -39 40 C-39.66 39.401875 -40.32 38.80375 -41 38.1875 C-44.97959815 33.83481453 -44.28396025 27.51964709 -44.21484375 21.8828125 C-43.76110561 15.79447164 -42.43565928 10.76696527 -38.5625 6 C-36.4060593 4.31692433 -34.52370895 3.02817772 -32 2 C-32 1.34 -32 0.68 -32 0 C-20.81040238 -5.54528732 -11.18959762 -5.54528732 0 0 Z " fill="#717BFD" transform="translate(467,151)"/>
<path d="M0 0 C1.875 0.6875 1.875 0.6875 2.875 1.6875 C3.14959456 3.1783439 3.36662676 4.67987623 3.55859375 6.18359375 C3.68032959 7.12557617 3.80206543 8.06755859 3.92749023 9.03808594 C4.05454346 10.05676758 4.18159668 11.07544922 4.3125 12.125 C4.5137146 13.68976074 4.5137146 13.68976074 4.71899414 15.28613281 C5.41684326 20.7766066 6.04878268 26.26734082 6.59594727 31.7746582 C7.36253878 39.4310666 8.69353544 46.76723768 10.40722656 54.26660156 C12.37820465 63.29004362 13.01915715 72.42902844 13.64135742 81.62890625 C13.82524219 83.88360224 13.82524219 83.88360224 14.875 86.6875 C15.01903348 88.02113703 15.12090423 89.35968046 15.19140625 90.69921875 C15.23330078 91.45654297 15.27519531 92.21386719 15.31835938 92.99414062 C15.35767578 93.77982422 15.39699219 94.56550781 15.4375 95.375 C15.48068359 96.17228516 15.52386719 96.96957031 15.56835938 97.79101562 C15.67427368 99.75631447 15.77512551 101.72188496 15.875 103.6875 C16.535 103.6875 17.195 103.6875 17.875 103.6875 C17.98457031 102.44355469 18.09414063 101.19960938 18.20703125 99.91796875 C18.36668286 98.23693116 18.52686801 96.55594419 18.6875 94.875 C18.75775391 94.06095703 18.82800781 93.24691406 18.90039062 92.40820312 C19.43960634 86.90820284 20.59543891 81.87278293 22.1237793 76.5690918 C23.45843032 71.44953183 24.1329519 66.2324503 24.875 61 C26.32279006 51.17771055 27.93348973 41.42446816 29.875 31.6875 C32.25 31.0625 32.25 31.0625 34.875 30.6875 C37.73670278 33.54920278 38.30873261 37.01271075 39.375 40.8125 C39.58769531 41.54726563 39.80039062 42.28203125 40.01953125 43.0390625 C41.05808491 46.65807156 42.03436906 50.28430886 42.9296875 53.94140625 C43.85953794 57.62622681 45.01178406 61.13444551 46.2890625 64.70703125 C46.875 66.6875 46.875 66.6875 46.875 69.6875 C67.335 69.6875 87.795 69.6875 108.875 69.6875 C109.205 71.3375 109.535 72.9875 109.875 74.6875 C108.875 75.6875 108.875 75.6875 106.21116638 75.80775452 C104.4291256 75.8044236 104.4291256 75.8044236 102.61108398 75.80102539 C101.6306311 75.80124443 101.6306311 75.80124443 100.63037109 75.8014679 C98.46057872 75.80076883 96.29087121 75.79297678 94.12109375 75.78515625 C92.62036689 75.78329205 91.11963943 75.78186816 89.61891174 75.78086853 C85.66181774 75.77704352 81.70476022 75.7672134 77.74768066 75.75616455 C73.71265151 75.74595006 69.67761647 75.74137083 65.64257812 75.73632812 C57.72003531 75.72559111 49.79752219 75.7085149 41.875 75.6875 C41.22800801 74.09673265 40.58366276 72.50488866 39.94042969 70.91259766 C39.58132507 70.02625641 39.22222046 69.13991516 38.85223389 68.22671509 C37.69339783 65.21563039 36.85550477 62.20367052 36.125 59.0625 C35.88265625 58.03898437 35.6403125 57.01546875 35.390625 55.9609375 C35.22046875 55.21070313 35.0503125 54.46046875 34.875 53.6875 C33.33280706 58.73583992 32.27662878 63.68950134 31.47265625 68.90234375 C31.3494249 69.675746 31.22619354 70.44914825 31.09922791 71.24598694 C30.70792467 73.70503544 30.3222879 76.1649243 29.9375 78.625 C29.431279 81.84291155 28.92213687 85.06034357 28.41015625 88.27734375 C28.28476471 89.06692474 28.15937317 89.85650574 28.03018188 90.67001343 C26.98650037 97.16459795 25.78662017 103.62165715 24.52124023 110.07641602 C24.04131182 112.75817692 23.66047053 115.38036824 23.35180664 118.08178711 C22.875 121.6875 22.875 121.6875 21.875 122.6875 C21.48351239 124.19915654 21.13527543 125.72219632 20.8125 127.25 C20.63589844 128.07628906 20.45929688 128.90257812 20.27734375 129.75390625 C20.07818359 130.71103516 20.07818359 130.71103516 19.875 131.6875 C18.21885343 132.06968767 16.55042976 132.40145102 14.875 132.6875 C13.3292829 131.1417829 13.49459608 129.49213794 13.2265625 127.34765625 C13.10796875 126.44853516 12.989375 125.54941406 12.8671875 124.62304688 C12.62694193 122.74325312 12.38983602 120.86305477 12.15625 118.98242188 C11.54399141 114.38071239 10.76626057 110.0640369 9.33984375 105.640625 C7.72511522 100.56855432 7.18966471 95.66721647 6.8125 90.375 C6.20018631 82.40279698 5.1503325 74.58065086 3.875 66.6875 C3.15584533 62.10579405 2.45091858 57.52202669 1.75 52.9375 C1.56824219 51.78378906 1.38648438 50.63007813 1.19921875 49.44140625 C0.23853853 43.10669531 -0.32946829 37.09417313 -0.125 30.6875 C-2.70793618 32.92504611 -3.58202578 34.50651053 -4.22265625 37.84765625 C-4.38443359 38.64107422 -4.54621094 39.43449219 -4.71289062 40.25195312 C-4.86951172 41.07630859 -5.02613281 41.90066406 -5.1875 42.75 C-5.50491247 44.38805232 -5.82883904 46.02485965 -6.16015625 47.66015625 C-6.2981665 48.38468994 -6.43617676 49.10922363 -6.57836914 49.85571289 C-7.125 51.6875 -7.125 51.6875 -9.125 53.6875 C-9.125 49.7275 -9.125 45.7675 -9.125 41.6875 C-11.04039047 46.65010257 -12.73461435 51.55376838 -14.125 56.6875 C-20.75 55.9375 -20.75 55.9375 -24.125 53.6875 C-21.485 54.0175 -18.845 54.3475 -16.125 54.6875 C-15.85236328 52.80417969 -15.85236328 52.80417969 -15.57421875 50.8828125 C-14.14465545 41.26950333 -12.52961168 32.14050088 -9.125 23.00390625 C-7.64029823 18.08003202 -7.0378603 13.05794624 -6.35742188 7.96875 C-6.18243164 6.80085938 -6.18243164 6.80085938 -6.00390625 5.609375 C-5.9066626 4.90393555 -5.80941895 4.19849609 -5.70922852 3.47167969 C-4.7421533 0.51832169 -3.0147456 -0.44334494 0 0 Z " fill="#6671FD" transform="translate(441.125,291.3125)"/>
<path d="M0 0 C4.68125871 2.75582871 7.77296727 7.03892405 10.44140625 11.6796875 C11.73955796 17.44925065 11.49886383 22.79583168 9.00390625 28.1796875 C8.01390625 28.5096875 7.02390625 28.8396875 6.00390625 29.1796875 C4.83723958 31.09635417 4.83723958 31.09635417 4.00390625 33.1796875 C2.59518943 35.99712114 0.48638307 37.014631 -2.2890625 38.33984375 C-9.54966254 40.59241086 -18.21776772 40.61876286 -25.05859375 37.1171875 C-29.9514318 33.87071083 -34.12090603 29.80525067 -35.99609375 24.1796875 C-36.56624031 17.9080753 -36.31992707 12.68478643 -32.99609375 7.1796875 C-24.02494862 -2.33516339 -12.44342582 -4.81237463 0 0 Z " fill="#0E1666" transform="translate(1172.99609375,138.8203125)"/>
<path d="M0 0 C0 0.66 0 1.32 0 2 C0.845625 2.061875 1.69125 2.12375 2.5625 2.1875 C6.91420161 3.21608402 9.80671936 4.87929392 13 8 C16.26352711 13.5795786 16 16.10889471 16 23 C-1.82 23 -19.64 23 -38 23 C-38 21.02 -38 19.04 -38 17 C-37.34 17 -36.68 17 -36 17 C-36.061875 16.2575 -36.12375 15.515 -36.1875 14.75 C-35.96760006 11.52480092 -35.21747812 10.30276574 -33 8 C-32.34 8 -31.68 8 -31 8 C-31 7.34 -31 6.68 -31 6 C-26.61538462 3 -26.61538462 3 -24 3 C-24 2.34 -24 1.68 -24 1 C-16.29752422 -1.36999255 -7.8473223 -2.33551259 0 0 Z " fill="#EEEEF3" transform="translate(916,223)"/>
<path d="M0 0 C12.87 0 25.74 0 39 0 C39 20.13 39 40.26 39 61 C60.12 61 81.24 61 103 61 C102.96038804 41.29893661 102.96038804 41.29893661 102.90991211 21.59790039 C102.90699322 19.13948612 102.9044446 16.68107136 102.90234375 14.22265625 C102.89722778 12.9322644 102.89211182 11.64187256 102.88684082 10.31237793 C102.88665955 8.48531311 102.88665955 8.48531311 102.88647461 6.62133789 C102.884254 5.55766495 102.88203339 4.493992 102.87974548 3.39808655 C103 1 103 1 104 0 C116.54 0 129.08 0 142 0 C142 51.81 142 103.62 142 157 C129.13 157 116.26 157 103 157 C103 136.21 103 115.42 103 94 C81.88 94 60.76 94 39 94 C39 114.79 39 135.58 39 157 C26.13 157 13.26 157 0 157 C0 105.19 0 53.38 0 0 Z M1 1 C1 52.15 1 103.3 1 156 C13.21 156 25.42 156 38 156 C38 135.21 38 114.42 38 93 C59.78 93 81.56 93 104 93 C104 113.79 104 134.58 104 156 C116.21 156 128.42 156 141 156 C141 105.18 141 54.36 141 2 C129.12 2 117.24 2 105 2 C105 21.8 105 41.6 105 62 C82.89 62 60.78 62 38 62 C38.0625 32.0625 38.0625 32.0625 38.09008789 22.59790039 C38.09300678 20.13948612 38.0955554 17.68107136 38.09765625 15.22265625 C38.10277222 13.9322644 38.10788818 12.64187256 38.11315918 11.31237793 C38.11328003 10.09433472 38.11340088 8.8762915 38.11352539 7.62133789 C38.115746 6.55766495 38.11796661 5.493992 38.12025452 4.39808655 C38.27116763 2.04756586 38.27116763 2.04756586 37 1 C25.12 1 13.24 1 1 1 Z " fill="#8184AD" transform="translate(1209,160)"/>
<path d="M0 0 C1.875 0.6875 1.875 0.6875 2.875 1.6875 C3.14959456 3.1783439 3.36662676 4.67987623 3.55859375 6.18359375 C3.68032959 7.12557617 3.80206543 8.06755859 3.92749023 9.03808594 C4.05454346 10.05676758 4.18159668 11.07544922 4.3125 12.125 C4.5137146 13.68976074 4.5137146 13.68976074 4.71899414 15.28613281 C5.32275832 20.03637367 5.90120241 24.78570249 6.375 29.55078125 C7.1325522 37.16727459 8.20049318 44.47758617 9.9375 51.9375 C12.36860172 62.4354894 12.6979301 72.94576807 12.875 83.6875 C12.545 83.6875 12.215 83.6875 11.875 83.6875 C11.875 82.0375 11.875 80.3875 11.875 78.6875 C11.215 78.6875 10.555 78.6875 9.875 78.6875 C9.7397301 83.2991755 9.7397301 83.2991755 10.375 87.84375 C11.088454 91.90151962 10.97967687 95.88937754 10.9375 100 C10.93298828 100.83595703 10.92847656 101.67191406 10.92382812 102.53320312 C10.91210548 104.58466649 10.89417203 106.63609273 10.875 108.6875 C10.545 108.6875 10.215 108.6875 9.875 108.6875 C8.18135223 102.61153861 7.3739875 96.778926 6.875 90.5 C6.22423828 82.49201553 5.15305019 74.61909786 3.875 66.6875 C3.15606457 62.10575989 2.45091857 57.52202668 1.75 52.9375 C1.56824219 51.78378906 1.38648438 50.63007813 1.19921875 49.44140625 C0.23853853 43.10669531 -0.32946829 37.09417313 -0.125 30.6875 C-2.70793618 32.92504611 -3.58202578 34.50651053 -4.22265625 37.84765625 C-4.38443359 38.64107422 -4.54621094 39.43449219 -4.71289062 40.25195312 C-4.86951172 41.07630859 -5.02613281 41.90066406 -5.1875 42.75 C-5.50491247 44.38805232 -5.82883904 46.02485965 -6.16015625 47.66015625 C-6.2981665 48.38468994 -6.43617676 49.10922363 -6.57836914 49.85571289 C-7.125 51.6875 -7.125 51.6875 -9.125 53.6875 C-9.125 49.7275 -9.125 45.7675 -9.125 41.6875 C-11.04039047 46.65010257 -12.73461435 51.55376838 -14.125 56.6875 C-20.75 55.9375 -20.75 55.9375 -24.125 53.6875 C-21.485 54.0175 -18.845 54.3475 -16.125 54.6875 C-15.85236328 52.80417969 -15.85236328 52.80417969 -15.57421875 50.8828125 C-14.14465545 41.26950333 -12.52961168 32.14050088 -9.125 23.00390625 C-7.64029823 18.08003202 -7.0378603 13.05794624 -6.35742188 7.96875 C-6.18243164 6.80085938 -6.18243164 6.80085938 -6.00390625 5.609375 C-5.9066626 4.90393555 -5.80941895 4.19849609 -5.70922852 3.47167969 C-4.7421533 0.51832169 -3.0147456 -0.44334494 0 0 Z " fill="#737EFD" transform="translate(441.125,291.3125)"/>
<path d="M0 0 C3.63 0 7.26 0 11 0 C11 4.29 11 8.58 11 13 C15.62 13 20.24 13 25 13 C25 16.63 25 20.26 25 24 C20.38 24 15.76 24 11 24 C11 28.29 11 32.58 11 37 C7.37 37 3.74 37 0 37 C0 32.71 0 28.42 0 24 C-4.29 24 -8.58 24 -13 24 C-13 20.37 -13 16.74 -13 13 C-8.71 13 -4.42 13 0 13 C0 8.71 0 4.42 0 0 Z " fill="#F8F8FD" transform="translate(445,157)"/>
<path d="M0 0 C0.33 0 0.66 0 1 0 C1.159877 4.87624848 1.04092961 9.27906636 0.0625 14.0625 C-0.85224665 18.62352844 -1.21927112 23.04104353 -1.4375 27.6875 C-1.7731605 34.71449778 -2.85881223 41.3966512 -4.28125 48.28125 C-4.8093245 51.01346153 -5.21737604 53.6500443 -5.53125 56.40625 C-6 60 -6 60 -7 61 C-7.39148761 62.51165654 -7.73972457 64.03469632 -8.0625 65.5625 C-8.23910156 66.38878906 -8.41570312 67.21507812 -8.59765625 68.06640625 C-8.73042969 68.70449219 -8.86320312 69.34257812 -9 70 C-10.65614657 70.38218767 -12.32457024 70.71395102 -14 71 C-16.3025151 68.6974849 -16.05648076 63.79158778 -16.5 60.6875 C-16.6345459 59.75357422 -16.7690918 58.81964844 -16.90771484 57.85742188 C-17.92453579 50.40823914 -18.4579413 42.9986489 -18.70898438 35.48706055 C-18.84315394 31.52946739 -19.1550805 27.88113427 -20 24 C-20.11678799 21.32321927 -20.0454506 18.68158543 -20 16 C-19.01 16.33 -18.02 16.66 -17 17 C-17 18.65 -17 20.3 -17 22 C-16.34 22 -15.68 22 -15 22 C-14.13580777 24.59257669 -13.82419068 26.34037707 -13.68359375 29.01171875 C-13.64169922 29.76904297 -13.59980469 30.52636719 -13.55664062 31.30664062 C-13.51732422 32.09232422 -13.47800781 32.87800781 -13.4375 33.6875 C-13.39431641 34.48478516 -13.35113281 35.28207031 -13.30664062 36.10351562 C-13.20072632 38.06881447 -13.09987449 40.03438496 -13 42 C-12.34 42 -11.68 42 -11 42 C-11 41.34 -11 40.68 -11 40 C-10.34 40 -9.68 40 -9 40 C-8.96261719 38.94941406 -8.92523438 37.89882813 -8.88671875 36.81640625 C-8.54662836 29.03880783 -7.93149512 22.28340541 -5 15 C-4.32811503 12.66816393 -3.66084583 10.33498858 -3 8 C-1.21052632 2.42105263 -1.21052632 2.42105263 0 0 Z " fill="#6D79FE" transform="translate(470,353)"/>
<path d="M0 0 C11.22 0 22.44 0 34 0 C34.495 1.485 34.495 1.485 35 3 C35.66 3 36.32 3 37 3 C36.67 3.66 36.34 4.32 36 5 C35.34 4.67 34.68 4.34 34 4 C34 3.34 34 2.68 34 2 C23.44 2 12.88 2 2 2 C2 52.49 2 102.98 2 155 C12.89 155 23.78 155 35 155 C35 124.97 35 94.94 35 64 C35.99 64.495 35.99 64.495 37 65 C36.67 95.03 36.34 125.06 36 156 C24.12 156 12.24 156 0 156 C0 104.52 0 53.04 0 0 Z " fill="#494F8C" transform="translate(641,160)"/>
<path d="M0 0 C0.66 0 1.32 0 2 0 C2.33 50.49 2.66 100.98 3 153 C-7.89 153 -18.78 153 -30 153 C-30 124.95 -30 96.9 -30 68 C-29.01 67.505 -29.01 67.505 -28 67 C-28 94.72 -28 122.44 -28 151 C-18.43 151 -8.86 151 1 151 C0.9285376 149.01718018 0.8570752 147.03436035 0.78344727 144.99145508 C-0.18902408 116.2017711 -0.11883653 87.41612595 -0.06866455 58.61334229 C-0.05825038 51.98116353 -0.05382905 45.34898153 -0.04882812 38.71679688 C-0.03825136 25.81118785 -0.02149598 12.90559524 0 0 Z " fill="#000A57" transform="translate(814,162)"/>
<path d="M0 0 C11.22 0 22.44 0 34 0 C34 51.48 34 102.96 34 156 C22.12 156 10.24 156 -2 156 C-2 126.3 -2 96.6 -2 66 C-2.66 66 -3.32 66 -4 66 C-3.34 64.35 -2.68 62.7 -2 61 C-1.34 61 -0.68 61 0 61 C0 92.02 0 123.04 0 155 C10.89 155 21.78 155 33 155 C33 104.18 33 53.36 33 1 C22.11 1 11.22 1 0 1 C0 0.67 0 0.34 0 0 Z " fill="#54588F" transform="translate(784,160)"/>
<path d="M0 0 C2.31 0.66 4.62 1.32 7 2 C6.67 2.66 6.34 3.32 6 4 C5.44608078 4.01030746 4.89216156 4.02061493 4.32145691 4.03123474 C-1.60305572 4.14197506 -7.52749362 4.25625106 -13.4519043 4.37231445 C-15.64394522 4.41483352 -17.83600213 4.45653865 -20.02807617 4.49731445 C-36.69769395 4.80821453 -53.33500163 5.38277784 -70 6 C-39.31 6.33 -8.62 6.66 23 7 C23 7.66 23 8.32 23 9 C10.37004515 9.02312132 -2.2599047 9.04091401 -14.88987637 9.05181217 C-20.75382164 9.05704146 -26.61775249 9.06413994 -32.48168945 9.07543945 C-38.13561712 9.0862667 -43.78953087 9.09227649 -49.44346809 9.09487724 C-51.6057361 9.09673179 -53.76800331 9.10035295 -55.93026543 9.10573006 C-58.94758657 9.11293833 -61.96484943 9.11399103 -64.98217773 9.11352539 C-65.8856041 9.11712067 -66.78903046 9.12071594 -67.71983337 9.12442017 C-73.88594784 9.11405216 -73.88594784 9.11405216 -75 8 C-75.125 5.5 -75.125 5.5 -75 3 C-73.08614588 1.08614588 -69.6289211 1.82470803 -67.09350586 1.79467773 C-66.37159561 1.78477814 -65.64968536 1.77487854 -64.90589905 1.76467896 C-62.50891449 1.73297701 -60.11191008 1.70827241 -57.71484375 1.68359375 C-56.05716931 1.66303171 -54.3995002 1.64203545 -52.74183655 1.62062073 C-48.37051705 1.5653225 -43.99914963 1.51594756 -39.62774658 1.46777344 C-35.17040726 1.41761484 -30.71313787 1.3618994 -26.25585938 1.30664062 C-17.5039653 1.19896432 -8.75201288 1.09754055 0 1 C0 0.67 0 0.34 0 0 Z " fill="#8491FE" transform="translate(405,358)"/>
<path d="M0 0 C5.39346988 -0.02464849 10.78690725 -0.04283531 16.18041992 -0.05493164 C18.01668875 -0.05997231 19.85295354 -0.06680477 21.68920898 -0.07543945 C24.32276401 -0.08751672 26.95626616 -0.09323081 29.58984375 -0.09765625 C30.41588608 -0.10281754 31.24192841 -0.10797882 32.09300232 -0.11329651 C34.06236368 -0.11349205 36.03161614 -0.06204152 38 0 C39.8046094 1.8046094 39.16263984 4.56390849 39.18945312 6.99755859 C39.20617065 8.28334808 39.22288818 9.56913757 39.2401123 10.89389038 C39.24679428 11.58641277 39.25347626 12.27893517 39.26036072 12.99244308 C39.28139247 15.16314171 39.30842555 17.33369188 39.33703613 19.50430298 C39.39684139 24.12781063 39.44877585 28.75139051 39.5 33.375 C39.55949411 38.7004891 39.62228763 44.02590907 39.69187927 49.3512764 C39.7181266 51.4730431 39.73915276 53.59481765 39.7598877 55.71664429 C39.63998453 70.13399 39.63998453 70.13399 43 84 C38.94030039 81.2935336 38.72878883 78.99836916 37.58236694 74.39169312 C36.45665753 67.8355846 36.63599991 61.24084241 36.70703125 54.61328125 C36.71263948 53.05958978 36.71690376 51.50589293 36.71989441 49.95219421 C36.73124683 45.8997586 36.76062887 41.84765517 36.79400635 37.79534912 C36.83036907 32.91350415 36.84391423 28.03154696 36.86136627 23.1496048 C36.890274 15.76617349 36.94782684 8.38346834 37 1 C25.45 1 13.9 1 2 1 C2.33 29.38 2.66 57.76 3 87 C-0.30888858 83.69111142 -0.34737988 82.75740957 -0.3732605 78.29598999 C-0.36247467 77.52131378 -0.35168884 76.74663757 -0.34057617 75.94848633 C-0.34101425 75.12874832 -0.34145233 74.30901031 -0.34190369 73.46443176 C-0.33981271 70.75338977 -0.31646736 68.04296528 -0.29296875 65.33203125 C-0.28737389 63.45302163 -0.28310327 61.57400763 -0.28010559 59.69499207 C-0.26864817 54.74813771 -0.23917326 49.80154737 -0.20599365 44.85479736 C-0.17531211 39.80753145 -0.16160435 34.7602229 -0.14648438 29.71289062 C-0.11430444 19.80847772 -0.06309722 9.90426081 0 0 Z " fill="#797DA7" transform="translate(1379,195)"/>
<path d="M0 0 C0.66 0 1.32 0 2 0 C2 0.66 2 1.32 2 2 C2.66 2 3.32 2 4 2 C4.33 3.98 4.66 5.96 5 8 C26.12 8 47.24 8 69 8 C68.67 9.65 68.34 11.3 68 13 C45.89 13 23.78 13 1 13 C0.67 8.71 0.34 4.42 0 0 Z " fill="#6977FE" transform="translate(482,354)"/>
<path d="M0 0 C0.33 0 0.66 0 1 0 C3.88303059 12.65632296 4.67585003 25.04832832 5 38 C4.67 38 4.34 38 4 38 C4 36.35 4 34.7 4 33 C3.34 33 2.68 33 2 33 C1.8647301 37.6116755 1.8647301 37.6116755 2.5 42.15625 C3.213454 46.21401962 3.10467687 50.20187754 3.0625 54.3125 C3.05798828 55.14845703 3.05347656 55.98441406 3.04882812 56.84570312 C3.03710548 58.89716649 3.01917203 60.94859273 3 63 C2.67 63 2.34 63 2 63 C0.30611216 56.92317738 -0.49647736 51.09135288 -1 44.8125 C-1.79112518 35.75851177 -2.94028023 26.87323561 -4.5546875 17.92578125 C-5.11912183 14.21734868 -5.06458971 10.74620329 -5 7 C-4.67 7 -4.34 7 -4 7 C-3.87882812 7.63808594 -3.75765625 8.27617187 -3.6328125 8.93359375 C-3.46523438 9.75988281 -3.29765625 10.58617187 -3.125 11.4375 C-2.96257812 12.26121094 -2.80015625 13.08492188 -2.6328125 13.93359375 C-2.42398437 14.61550781 -2.21515625 15.29742187 -2 16 C-1.34 16.33 -0.68 16.66 0 17 C0 11.39 0 5.78 0 0 Z " fill="#858CFB" transform="translate(449,337)"/>
<path d="M0 0 C0.33 0 0.66 0 1 0 C1.32836784 6.56735678 0.44265759 11.97392103 -1.34375 18.30078125 C-2.15749595 21.184821 -2.15749595 21.184821 -2 25 C-1.01 24.67 -0.02 24.34 1 24 C2.03316488 21.20827761 2.03316488 21.20827761 2.6875 17.9375 C2.93886719 16.83277344 3.19023437 15.72804688 3.44921875 14.58984375 C3.63097656 13.73519531 3.81273437 12.88054687 4 12 C5.32 12.33 6.64 12.66 8 13 C9.27041977 22.04039783 10.34915606 30.84435229 10 40 C9.67 40 9.34 40 9 40 C7.65504172 32.90294338 6.75908465 26.2274605 7 19 C4.41706382 21.23754611 3.54297422 22.81901053 2.90234375 26.16015625 C2.74056641 26.95357422 2.57878906 27.74699219 2.41210938 28.56445312 C2.25548828 29.38880859 2.09886719 30.21316406 1.9375 31.0625 C1.62008753 32.70055232 1.29616096 34.33735965 0.96484375 35.97265625 C0.8268335 36.69718994 0.68882324 37.42172363 0.54663086 38.16821289 C0 40 0 40 -2 42 C-2 38.04 -2 34.08 -2 30 C-3.91539047 34.96260257 -5.60961435 39.86626838 -7 45 C-13.625 44.25 -13.625 44.25 -17 42 C-14.36 42.33 -11.72 42.66 -9 43 C-8.72736328 41.11667969 -8.72736328 41.11667969 -8.44921875 39.1953125 C-6.99352248 29.40626831 -5.23419088 20.20608579 -1.875 10.875 C-0.77014455 7.24476067 -0.39032639 3.77315514 0 0 Z " fill="#8C96FD" transform="translate(434,303)"/>
<path d="M0 0 C1.67542976 0.28604898 3.34385343 0.61781233 5 1 C5.33 2.65 5.66 4.3 6 6 C5.67 5.01 5.34 4.02 5 3 C3.68 3.33 2.36 3.66 1 4 C0.91959473 4.60996826 0.83918945 5.21993652 0.75634766 5.84838867 C0.38594713 8.62903458 0.00557171 11.40822868 -0.375 14.1875 C-0.50132812 15.14720703 -0.62765625 16.10691406 -0.7578125 17.09570312 C-0.88671875 18.02705078 -1.015625 18.95839844 -1.1484375 19.91796875 C-1.26364746 20.77156982 -1.37885742 21.6251709 -1.49755859 22.50463867 C-2.03538128 25.17572017 -2.91752552 27.5048377 -4 30 C-2.35 29.34 -0.7 28.68 1 28 C1 25.03 1 22.06 1 19 C2.32 19 3.64 19 5 19 C4.41638663 21.43172237 3.75681931 23.8152066 3.04150391 26.21313477 C2.05082545 29.81520077 1.3327467 33.34557874 0.7109375 37.02734375 C0.38222656 38.95610352 0.38222656 38.95610352 0.046875 40.92382812 C-0.17716892 42.26170442 -0.4011262 43.59959523 -0.625 44.9375 C-0.85641148 46.30279533 -1.08817918 47.66803034 -1.3203125 49.03320312 C-1.88370871 52.35489327 -2.44348872 55.67715064 -3 59 C-3.33 59 -3.66 59 -4 59 C-4.21540795 53.29168919 -3.55226376 48.22993227 -2.4453125 42.6328125 C-1.88919619 39.34489676 -1.85226309 36.32408047 -2 33 C-4.49698252 38.10746424 -5.63775175 42.82752843 -6.47265625 48.44921875 C-7 51 -7 51 -7.98828125 52.81640625 C-9.52892656 56.1415828 -9.73654127 59.64561245 -10.125 63.25 C-10.25455078 64.36761719 -10.25455078 64.36761719 -10.38671875 65.5078125 C-10.59786867 67.33777846 -10.79984545 69.16879879 -11 71 C-11.33 71 -11.66 71 -12 71 C-11.91141928 68.39450495 -11.80437217 65.79176469 -11.6875 63.1875 C-11.66494141 62.46884766 -11.64238281 61.75019531 -11.61914062 61.00976562 C-11.36195162 55.70231985 -10.24686509 51.00944289 -8.76879883 45.91674805 C-7.41674921 40.78720316 -6.74431163 35.55855185 -6 30.3125 C-5.66207309 28.02836142 -5.32223054 25.74450543 -4.98046875 23.4609375 C-4.81595215 22.36104492 -4.65143555 21.26115234 -4.48193359 20.12792969 C-3.8280934 15.88426175 -3.09943019 11.65835232 -2.3125 7.4375 C-2.08175781 6.19871094 -1.85101563 4.95992188 -1.61328125 3.68359375 C-1 1 -1 1 0 0 Z " fill="#8991FA" transform="translate(472,322)"/>
<path d="M0 0 C0.66 0 1.32 0 2 0 C2 24.75 2 49.5 2 75 C18.335 75.495 18.335 75.495 35 76 C35 76.33 35 76.66 35 77 C23.45 77 11.9 77 0 77 C0 51.59 0 26.18 0 0 Z " fill="#020855" transform="translate(1211,238)"/>
<path d="M0 0 C2.31 0.66 4.62 1.32 7 2 C6.67 2.66 6.34 3.32 6 4 C-20.4 4 -46.8 4 -74 4 C-74.33 5.32 -74.66 6.64 -75 8 C-75.042721 6.33388095 -75.04063832 4.66617115 -75 3 C-73.08614588 1.08614588 -69.6289211 1.82470803 -67.09350586 1.79467773 C-66.37159561 1.78477814 -65.64968536 1.77487854 -64.90589905 1.76467896 C-62.50891449 1.73297701 -60.11191008 1.70827241 -57.71484375 1.68359375 C-56.05716931 1.66303171 -54.3995002 1.64203545 -52.74183655 1.62062073 C-48.37051705 1.5653225 -43.99914963 1.51594756 -39.62774658 1.46777344 C-35.17040726 1.41761484 -30.71313787 1.3618994 -26.25585938 1.30664062 C-17.5039653 1.19896432 -8.75201288 1.09754055 0 1 C0 0.67 0 0.34 0 0 Z " fill="#A1A7F9" transform="translate(405,358)"/>
<path d="M0 0 C0.99 0 1.98 0 3 0 C3 0.66 3 1.32 3 2 C2.34 2 1.68 2 1 2 C1 25.1 1 48.2 1 72 C-5.6 72 -12.2 72 -19 72 C-19 71.67 -19 71.34 -19 71 C-13.06 71 -7.12 71 -1 71 C-1.00523682 68.884729 -1.01047363 66.76945801 -1.01586914 64.59008789 C-1.0324064 57.6171344 -1.04347177 50.64418007 -1.05181217 43.6712122 C-1.05704056 39.44168629 -1.0641374 35.2121804 -1.07543945 30.98266602 C-1.08626991 26.90431457 -1.09227717 22.82598243 -1.09487724 18.74761772 C-1.09673121 17.18822361 -1.10035127 15.6288306 -1.10573006 14.06944466 C-1.11294262 11.89270838 -1.11399085 9.71605286 -1.11352539 7.53930664 C-1.115746 6.29798477 -1.11796661 5.0566629 -1.12025452 3.77772522 C-1 1 -1 1 0 0 Z " fill="#8E95FB" transform="translate(408,227)"/>
<path d="M0 0 C2.09383833 3.75917021 3.29777361 7.78434195 4.5625 11.875 C4.78357422 12.56980469 5.00464844 13.26460938 5.23242188 13.98046875 C5.44576172 14.66496094 5.65910156 15.34945313 5.87890625 16.0546875 C6.0704126 16.66812012 6.26191895 17.28155273 6.45922852 17.91357422 C7.14767735 20.56977456 7.54889439 23.29336633 8 26 C28.46 26 48.92 26 70 26 C70 26.33 70 26.66 70 27 C49.21 27 28.42 27 7 27 C6.67 25.02 6.34 23.04 6 21 C5.34 21 4.68 21 4 21 C4 20.34 4 19.68 4 19 C3.34 19 2.68 19 2 19 C2.165 19.515625 2.33 20.03125 2.5 20.5625 C3.15049 23.73363876 3.0620734 26.77218334 3 30 C-0.70544546 24.44183181 -2.13463768 17.57675361 -3 11 C-2.34 11 -1.68 11 -1 11 C-0.67 11.66 -0.34 12.32 0 13 C0.66 11.35 1.32 9.7 2 8 C1.34 8 0.68 8 0 8 C0 5.36 0 2.72 0 0 Z " fill="#969CFA" transform="translate(480,335)"/>
<path d="M0 0 C1.02867187 -0.00773438 2.05734375 -0.01546875 3.1171875 -0.0234375 C18.76638233 0.01638233 18.76638233 0.01638233 23 4.25 C17.62484067 4.27467759 12.24971415 4.29284928 6.87451172 4.30493164 C5.04507879 4.30996737 3.21564991 4.31679627 1.38623047 4.32543945 C-1.23991898 4.33753824 -3.86601532 4.34323583 -6.4921875 4.34765625 C-7.31306854 4.35281754 -8.13394958 4.35797882 -8.97970581 4.36329651 C-14.77225659 4.36387171 -14.77225659 4.36387171 -17 3.25 C-18.32860925 2.89830932 -19.66158328 2.56229724 -21 2.25 C-13.88726028 0.38290582 -7.33720026 -0.05516692 0 0 Z " fill="#363C79" transform="translate(905,193.75)"/>
<path d="M0 0 C0.33 0 0.66 0 1 0 C1.14411194 6.49813839 0.66503014 12.58981424 -0.375 19 C-0.50132812 19.85722656 -0.62765625 20.71445312 -0.7578125 21.59765625 C-0.88671875 22.41105469 -1.015625 23.22445313 -1.1484375 24.0625 C-1.26364746 24.79597656 -1.37885742 25.52945312 -1.49755859 26.28515625 C-1.66336426 26.85105469 -1.82916992 27.41695313 -2 28 C-2.66 28.33 -3.32 28.66 -4 29 C-5.13350534 31.01669827 -5.13350534 31.01669827 -6 33 C-6.33 33 -6.66 33 -7 33 C-7.13806322 27.39588844 -6.71777854 22.30266142 -5.625 16.8125 C-5.49867188 16.12736328 -5.37234375 15.44222656 -5.2421875 14.73632812 C-4.21240507 9.38660843 -2.49532123 4.81240524 0 0 Z " fill="#5F69FD" transform="translate(470,353)"/>
<path d="M0 0 C0.66 0 1.32 0 2 0 C2.33 1.65 2.66 3.3 3 5 C3.66 5 4.32 5 5 5 C5.33 6.65 5.66 8.3 6 10 C4.35 8.68 2.7 7.36 1 6 C1 34.05 1 62.1 1 91 C0.67 91 0.34 91 0 91 C0 60.97 0 30.94 0 0 Z " fill="#CCCCDB" transform="translate(677,225)"/>
<path d="M0 0 C0.66 0 1.32 0 2 0 C2 31.02 2 62.04 2 94 C1.67 94 1.34 94 1 94 C1 64.3 1 34.6 1 4 C0.34 4 -0.32 4 -1 4 C-0.67 2.68 -0.34 1.36 0 0 Z " fill="#6C74A5" transform="translate(781,222)"/>
<path d="M0 0 C0.33 0 0.66 0 1 0 C1.12117188 0.63808594 1.24234375 1.27617187 1.3671875 1.93359375 C1.53476562 2.75988281 1.70234375 3.58617187 1.875 4.4375 C2.03742188 5.26121094 2.19984375 6.08492188 2.3671875 6.93359375 C2.57601563 7.61550781 2.78484375 8.29742187 3 9 C3.66 9.33 4.32 9.66 5 10 C4.96519531 10.84304688 4.96519531 10.84304688 4.9296875 11.703125 C4.78764024 18.31846867 5.27576186 24.80054218 5.9375 31.375 C6.02435059 32.24286133 6.11120117 33.11072266 6.20068359 34.00488281 C6.54592388 37.29647137 6.90342236 40.52448926 7.5625 43.76953125 C8.06471024 46.32990666 8.09725228 48.70607933 8.0625 51.3125 C8.05347656 52.19550781 8.04445313 53.07851563 8.03515625 53.98828125 C8.02355469 54.65214844 8.01195312 55.31601562 8 56 C7.67 56 7.34 56 7 56 C5.30611216 49.92317738 4.50352264 44.09135288 4 37.8125 C3.20887482 28.75851177 2.05971977 19.87323561 0.4453125 10.92578125 C-0.11912183 7.21734868 -0.06458971 3.74620329 0 0 Z " fill="#979DFA" transform="translate(444,344)"/>
<path d="M0 0 C0.66 0 1.32 0 2 0 C2 0.66 2 1.32 2 2 C2.66 2 3.32 2 4 2 C4.33 4.31 4.66 6.62 5 9 C12.26 9 19.52 9 27 9 C19.90637134 13.72908577 9.17540526 12.0869724 1 12 C0.67 8.04 0.34 4.08 0 0 Z " fill="#5C6DFD" transform="translate(482,354)"/>
<path d="M0 0 C0.495 1.98 0.495 1.98 1 4 C-1.9558293 8.08707261 -5.14469472 11.48793034 -10.29248047 12.41113281 C-18.29623123 13.00945806 -26.47615124 13.02924189 -34 10 C-34 9.34 -34 8.68 -34 8 C-34.66 7.67 -35.32 7.34 -36 7 C-34.68 7 -33.36 7 -32 7 C-32 7.66 -32 8.32 -32 9 C-18.70287442 9.50142924 -18.70287442 9.50142924 -6 6 C-5.01 5.67 -4.02 5.34 -3 5 C-3 4.34 -3 3.68 -3 3 C-2.34 3 -1.68 3 -1 3 C-0.67 2.01 -0.34 1.02 0 0 Z " fill="#555C91" transform="translate(1462,276)"/>
<path d="M0 0 C0.33 0 0.66 0 1 0 C2.76594615 7.35743158 3.38442922 14.38056884 3.375 21.9375 C3.37628906 23.01765381 3.37757813 24.09780762 3.37890625 25.21069336 C3.24986608 35.15925059 1.55880293 44.41591225 -1 54 C-1.33 54 -1.66 54 -2 54 C-2.20466383 49.59972763 -1.79683978 45.67867065 -1 41.34375 C0.32760267 32.94522005 0.22013745 24.66281119 0.125 16.1875 C0.11493897 14.60872971 0.1058187 13.02995313 0.09765625 11.45117188 C0.07591564 7.63395547 0.04156265 3.81704991 0 0 Z " fill="#A7A9F7" transform="translate(571,223)"/>
<path d="M0 0 C2 1 2 1 2.61230469 2.70019531 C3.44883702 7.6624967 3.22788981 12.7309876 3.25 17.75 C3.270625 18.905 3.29125 20.06 3.3125 21.25 C3.35333918 30.19378018 1.97308941 36.42195899 -3 44 C-3.33 43.34 -3.66 42.68 -4 42 C-3.54625 41.34 -3.0925 40.68 -2.625 40 C1.59653319 32.20640027 0.12241572 21.48442767 0.0625 12.875 C0.05798828 11.63234375 0.05347656 10.3896875 0.04882812 9.109375 C0.03714924 6.07286498 0.0207714 3.03645912 0 0 Z " fill="#A6A7BE" transform="translate(1670,240)"/>
<path d="M0 0 C1.67542976 0.28604898 3.34385343 0.61781233 5 1 C5.33 2.65 5.66 4.3 6 6 C5.67 5.01 5.34 4.02 5 3 C3.68 3.33 2.36 3.66 1 4 C0.93006836 4.56807373 0.86013672 5.13614746 0.78808594 5.72143555 C-0.60969416 16.83738287 -2.1374487 27.43190278 -6 38 C-7.00230883 34.84153557 -6.95429035 32.66988822 -6.29296875 29.4375 C-6.11934814 28.56319336 -5.94572754 27.68888672 -5.7668457 26.78808594 C-5.57566162 25.86801758 -5.38447754 24.94794922 -5.1875 24 C-4.8087394 22.10960634 -4.43112922 20.2189818 -4.0546875 18.328125 C-3.87131836 17.41482422 -3.68794922 16.50152344 -3.49902344 15.56054688 C-2.68527836 11.38512693 -2.03019365 7.1904402 -1.39453125 2.984375 C-1 1 -1 1 0 0 Z " fill="#999EFC" transform="translate(472,322)"/>
<path d="M0 0 C1.32 0.33 2.64 0.66 4 1 C5.27041977 10.04039783 6.34915606 18.84435229 6 28 C5.67 28 5.34 28 5 28 C3.65504172 20.90294338 2.75908465 14.2274605 3 7 C0.43240279 9.22994059 -0.48141146 10.87431533 -1.1875 14.1875 C-1.455625 15.445625 -1.72375 16.70375 -2 18 C-3.51553092 14.02549507 -2.49888623 10.79518851 -1.5625 6.75 C-1.27503906 5.48671875 -0.98757813 4.2234375 -0.69140625 2.921875 C-0.46324219 1.95765625 -0.23507812 0.9934375 0 0 Z " fill="#949DFD" transform="translate(438,315)"/>
<path d="M0 0 C11.88 0 23.76 0 36 0 C31.50897635 4.49102365 24.68785661 4.1841828 18.6875 4.3125 C12.05122902 4.23935473 6.25153402 3.18348797 0 1 C0 0.67 0 0.34 0 0 Z " fill="#5B6192" transform="translate(1413,315)"/>
<path d="M0 0 C0.66 0 1.32 0 2 0 C2.1429645 5.56939954 1.70504407 10.55830175 0.5625 16 C0.29046825 17.33282542 0.02093415 18.66616306 -0.24609375 20 C-0.37741699 20.65097656 -0.50874023 21.30195313 -0.64404297 21.97265625 C-1.02174281 24.1238356 -1.25240351 26.26498511 -1.47265625 28.4375 C-1.64667969 29.613125 -1.82070313 30.78875 -2 32 C-2.99 32.495 -2.99 32.495 -4 33 C-4 29.04 -4 25.08 -4 21 C-3.34 21 -2.68 21 -2 21 C-2.01160156 20.39414062 -2.02320313 19.78828125 -2.03515625 19.1640625 C-2.10065576 13.0819652 -1.98442666 7.01594067 -1 1 C-0.67 0.67 -0.34 0.34 0 0 Z " fill="#8F95FB" transform="translate(466,381)"/>
<path d="M0 0 C4.99637326 7.49455989 5.3945633 13.10040566 5 22 C4.67 21.01 4.34 20.02 4 19 C3.01 18.67 2.02 18.34 1 18 C-0.2062252 14.38132441 -0.10816918 11.07493749 -0.0625 7.3125 C-0.05798828 6.61060547 -0.05347656 5.90871094 -0.04882812 5.18554688 C-0.03706927 3.45699462 -0.01913454 1.72848635 0 0 Z " fill="#646FFD" transform="translate(445,335)"/>
<path d="M0 0 C0.33 0 0.66 0 1 0 C3.79982448 9.64525717 4.4734494 18.57235609 4.39111328 28.54980469 C4.37487418 30.89315681 4.39113276 33.23482135 4.41015625 35.578125 C4.40817598 37.09114958 4.4043368 38.60417312 4.3984375 40.1171875 C4.40451019 40.80585907 4.41058289 41.49453064 4.4168396 42.20407104 C4.34498425 47.20570872 3.16243674 50.59137772 1 55 C0 52 0 52 0.92089844 49.25756836 C2.12641245 45.61838885 2.25856482 42.70577508 2.265625 38.87890625 C2.26753845 38.21592026 2.2694519 37.55293427 2.27142334 36.86985779 C2.27277671 35.47565326 2.26913989 34.08143576 2.26074219 32.68725586 C2.25004707 30.57180997 2.26065699 28.45721642 2.2734375 26.34179688 C2.27211542 24.97916482 2.26955203 23.61653329 2.265625 22.25390625 C2.26336914 21.03002197 2.26111328 19.8061377 2.25878906 18.54516602 C1.98489952 14.79313772 1.11515906 11.58283814 0 8 C-0.21794764 5.28437244 -0.0958736 2.73239755 0 0 Z " fill="#ACB0FA" transform="translate(553,216)"/>
<path d="M0 0 C0.33 0 0.66 0 1 0 C1.0154612 0.84112083 1.0154612 0.84112083 1.03123474 1.69923401 C1.13973955 7.55586373 1.25429933 13.41235319 1.37231445 19.26879883 C1.41552286 21.45203709 1.45720739 23.63530608 1.49731445 25.81860352 C1.55535975 28.96379846 1.6189542 32.10884075 1.68359375 35.25390625 C1.70030624 36.2239711 1.71701874 37.19403595 1.73423767 38.1934967 C1.84310563 43.21750147 2.15855095 48.04413459 3 53 C0.90529413 51.31165959 0.07050376 50.44146632 -0.36076355 47.74104309 C-0.35410172 46.8594603 -0.34743988 45.9778775 -0.34057617 45.06958008 C-0.34034958 44.06876907 -0.34012299 43.06795807 -0.33988953 42.03681946 C-0.32440567 40.95861435 -0.30892181 39.88040924 -0.29296875 38.76953125 C-0.28872391 37.66397385 -0.28447906 36.55841644 -0.28010559 35.4193573 C-0.26329437 31.88349188 -0.22563685 28.34819355 -0.1875 24.8125 C-0.17245636 22.41732593 -0.1587674 20.02214294 -0.14648438 17.62695312 C-0.11338285 11.75110815 -0.06315893 5.87559458 0 0 Z " fill="#959CBB" transform="translate(1379,229)"/>
<path d="M0 0 C3.1108633 4.66629496 3.12311555 8.79648451 3.0625 14.3125 C3.05347656 15.38113281 3.04445313 16.44976562 3.03515625 17.55078125 C3.02355469 18.35902344 3.01195312 19.16726563 3 20 C2.01 20 1.02 20 0 20 C-1.37004923 13.14975385 -1.37004923 6.85024615 0 0 Z " fill="#6270FE" transform="translate(443,310)"/>
<path d="M0 0 C0.33 0 0.66 0 1 0 C0.88509088 2.68826864 0.75836801 5.37513469 0.625 8.0625 C0.57859375 9.19075195 0.57859375 9.19075195 0.53125 10.34179688 C0.27941541 15.18961281 -0.49168365 19.38308043 -2 24 C-8.625 23.25 -8.625 23.25 -12 21 C-9.36 21.33 -6.72 21.66 -4 22 C-3.87153687 21.16021606 -3.87153687 21.16021606 -3.74047852 20.3034668 C-3.35051939 17.76438792 -2.95655484 15.22594632 -2.5625 12.6875 C-2.42779297 11.80642578 -2.29308594 10.92535156 -2.15429688 10.01757812 C-2.02216797 9.17001953 -1.89003906 8.32246094 -1.75390625 7.44921875 C-1.63345947 6.66893311 -1.5130127 5.88864746 -1.38891602 5.0847168 C-1 3 -1 3 0 0 Z " fill="#A9AEFC" transform="translate(429,324)"/>
<path d="M0 0 C0 3 0 3 -1.375 4.6875 C-3 6 -3 6 -5 6 C-5.144375 6.58136719 -5.28875 7.16273438 -5.4375 7.76171875 C-5.94521183 9.78198876 -6.47149374 11.79756989 -7 13.8125 C-8.48961322 20.43794386 -8.66144537 27.23781667 -9 34 C-9.33 34 -9.66 34 -10 34 C-10.3690205 16.14350797 -10.3690205 16.14350797 -8 8 C-7.34 8 -6.68 8 -6 8 C-6 6.35 -6 4.7 -6 3 C-5.38125 2.87625 -4.7625 2.7525 -4.125 2.625 C-1.80879168 2.12802644 -1.80879168 2.12802644 0 0 Z " fill="#8E8FB0" transform="translate(1583,231)"/>
<path d="M0 0 C0.99 0 1.98 0 3 0 C3 3.96 3 7.92 3 12 C1.02 12.99 1.02 12.99 -1 14 C-2.59789351 9.04653013 -1.28306814 4.86717585 0 0 Z " fill="#5E6AFE" transform="translate(433,315)"/>
<path d="M0 0 C0.66 0 1.32 0 2 0 C2 13.86 2 27.72 2 42 C1.67 42 1.34 42 1 42 C1 29.46 1 16.92 1 4 C0.34 4 -0.32 4 -1 4 C-0.67 2.68 -0.34 1.36 0 0 Z " fill="#767BAD" transform="translate(781,222)"/>
<path d="M0 0 C1.32 0.66 2.64 1.32 4 2 C-2.07439825 8.70459519 -2.07439825 8.70459519 -5.9375 9.9375 C-6.9584375 9.9684375 -6.9584375 9.9684375 -8 10 C-6.34908222 5.70761377 -3.26245434 3.1206085 0 0 Z " fill="#293177" transform="translate(862,208)"/>
<path d="M0 0 C2.89477365 4.4737411 2.68345864 9.81261222 3.03515625 14.9765625 C3.22681455 17.49611532 3.22681455 17.49611532 4 21 C5.92122802 22.61706503 5.92122802 22.61706503 8 23 C6.35 23 4.7 23 3 23 C-0.21819111 15.22270481 -0.32098157 8.35740901 0 0 Z " fill="#B9BCFC" transform="translate(452,402)"/>
<path d="M0 0 C0.99 0.33 1.98 0.66 3 1 C4.10228696 5.40914783 4.07654536 9.48382401 4 14 C3.01 14.495 3.01 14.495 2 15 C0.2520497 9.75614911 -0.19392201 5.52677733 0 0 Z " fill="#5F6CFE" transform="translate(450,369)"/>
<path d="M0 0 C4.66954141 7.00431211 4.32610788 16.8110687 4 25 C3.67 25 3.34 25 3 25 C1.39698043 19.26562104 0.62202277 13.93883902 0.375 8 C0.33632813 7.22527344 0.29765625 6.45054687 0.2578125 5.65234375 C0.16478643 3.76856585 0.08136825 1.88431744 0 0 Z " fill="#A4A8FC" transform="translate(448,375)"/>
<path d="M0 0 C4.95 0 9.9 0 15 0 C15 0.66 15 1.32 15 2 C14.16855469 2.04898438 13.33710937 2.09796875 12.48046875 2.1484375 C11.39378906 2.22320312 10.30710937 2.29796875 9.1875 2.375 C8.10855469 2.44460937 7.02960938 2.51421875 5.91796875 2.5859375 C2.81373814 2.81195733 2.81373814 2.81195733 0 5 C0 3.35 0 1.7 0 0 Z " fill="#010959" transform="translate(1469,196)"/>
<path d="M0 0 C0.33 0.66 0.66 1.32 1 2 C-3.118647 5.72006826 -7.71715318 8.30824355 -13 10 C-13.66 9.67 -14.32 9.34 -15 9 C-13.35 7.35 -11.7 5.7 -10 4 C-10 4.66 -10 5.32 -10 6 C-6.38060496 4.27256146 -3.12432397 2.52349243 0 0 Z " fill="#606296" transform="translate(1651,303)"/>
<path d="M0 0 C0.33 0.66 0.66 1.32 1 2 C1.66 2.33 2.32 2.66 3 3 C1.02 5.97 1.02 5.97 -1 9 C-2.65 8.67 -4.3 8.34 -6 8 C-5.67 7.34 -5.34 6.68 -5 6 C-4.34 6.33 -3.68 6.66 -3 7 C-2.690625 6.21625 -2.38125 5.4325 -2.0625 4.625 C-1 2 -1 2 0 0 Z " fill="#3A4283" transform="translate(734,245)"/>
<path d="M0 0 C0.99 0.33 1.98 0.66 3 1 C3 2.32 3 3.64 3 5 C2.54625 5.4125 2.0925 5.825 1.625 6.25 C-0.97594355 9.05101613 -1.21184629 12.3017403 -2 16 C-3.3805087 12.23331402 -2.59568159 9.55210827 -1.5625 5.75 C-1.27503906 4.67234375 -0.98757813 3.5946875 -0.69140625 2.484375 C-0.46324219 1.66453125 -0.23507812 0.8446875 0 0 Z " fill="#BBC0FB" transform="translate(438,317)"/>
<path d="M0 0 C0 3.96 0 7.92 0 12 C-0.33 12 -0.66 12 -1 12 C-1.33 10.02 -1.66 8.04 -2 6 C-3.65 5.67 -5.3 5.34 -7 5 C-6.34 4.67 -5.68 4.34 -5 4 C-5 3.34 -5 2.68 -5 2 C-2 0 -2 0 0 0 Z " fill="#D2D1DC" transform="translate(1469,304)"/>
<path d="M0 0 C0.33 0 0.66 0 1 0 C1.33 2.31 1.66 4.62 2 7 C2.66 7 3.32 7 4 7 C4.125 12.75 4.125 12.75 3 15 C2.34 15 1.68 15 1 15 C-0.03590199 9.94997778 -0.10251672 5.12583611 0 0 Z " fill="#D6D7FB" transform="translate(456,380)"/>
<path d="M0 0 C0.69921875 1.76953125 0.69921875 1.76953125 1 4 C-0.29296875 5.88671875 -0.29296875 5.88671875 -2.1875 7.6875 C-2.79980469 8.28949219 -3.41210938 8.89148438 -4.04296875 9.51171875 C-6.07283736 11.05539128 -7.50842901 11.58565893 -10 12 C-9.61328125 11.55269531 -9.2265625 11.10539062 -8.828125 10.64453125 C-5.81609925 7.1478974 -2.85678969 3.62592537 0 0 Z " fill="#8C98FD" transform="translate(533,310)"/>
<path d="M0 0 C6.875 0.875 6.875 0.875 8 2 C10.53049402 2.07313567 13.03304837 2.09247527 15.5625 2.0625 C16.62887695 2.05573242 16.62887695 2.05573242 17.71679688 2.04882812 C19.47790013 2.03700864 21.23896036 2.01907263 23 2 C22.67 2.66 22.34 3.32 22 4 C19.45767658 4.08152344 16.91800798 4.14073716 14.375 4.1875 C13.30572266 4.22520508 13.30572266 4.22520508 12.21484375 4.26367188 C7.37723584 4.33024446 4.25261662 3.55559453 0 1 C0 0.67 0 0.34 0 0 Z " fill="#A3AAFC" transform="translate(437,199)"/>
<path d="M0 0 C0.33 0 0.66 0 1 0 C1.43177893 6.26079448 0.92739438 9.09075703 -3 14 C-4.1750709 10.47478731 -3.72717795 9.34332144 -2.625 5.875 C-2.34914063 4.98554688 -2.07328125 4.09609375 -1.7890625 3.1796875 C-1 1 -1 1 0 0 Z " fill="#464D87" transform="translate(847,227)"/>
<path d="M0 0 C0.33 0.99 0.66 1.98 1 3 C-1.64 5.31 -4.28 7.62 -7 10 C-7.66 9.67 -8.32 9.34 -9 9 C-7.625 7 -7.625 7 -6 5 C-5.34 5 -4.68 5 -4 5 C-4 4.34 -4 3.68 -4 3 C-3.34 3 -2.68 3 -2 3 C-2 2.34 -2 1.68 -2 1 C-1.34 0.67 -0.68 0.34 0 0 Z " fill="#818CFC" transform="translate(368,154)"/>
<path d="M0 0 C1.33332095 2.6666419 0.67102033 4.16680303 0 7 C-2.64 7.66 -5.28 8.32 -8 9 C-7.67 8.34 -7.34 7.68 -7 7 C-6.34 7 -5.68 7 -5 7 C-5 6.34 -5 5.68 -5 5 C-3.37446717 3.29319053 -1.70884005 1.62339805 0 0 Z " fill="#3C4589" transform="translate(1069,275)"/>
<path d="M0 0 C0.66 0 1.32 0 2 0 C1.84759391 2.66710654 1.50635081 4.4505871 -0.33203125 6.4453125 C-4.50625 10 -4.50625 10 -7 10 C-7 8 -7 8 -5.125 5.875 C-3 4 -3 4 -1 4 C-0.67 2.68 -0.34 1.36 0 0 Z " fill="#424B8E" transform="translate(1629,273)"/>
<path d="M0 0 C1.56779517 2.95074112 2.70074575 5.87119234 3.6875 9.0625 C3.95949219 9.91972656 4.23148437 10.77695312 4.51171875 11.66015625 C5 14 5 14 4 17 C2.14223235 13.86501708 1.79859524 11.62528568 2 8 C1.34 8 0.68 8 0 8 C0 5.36 0 2.72 0 0 Z " fill="#A4A7F8" transform="translate(480,335)"/>
<path d="M0 0 C0.66 0 1.32 0 2 0 C2.33 0.66 2.66 1.32 3 2 C3.99 2 4.98 2 6 2 C5.01 4.97 4.02 7.94 3 11 C2.67 11 2.34 11 2 11 C1.34 7.37 0.68 3.74 0 0 Z " fill="#828AFC" transform="translate(477,346)"/>
<path d="M0 0 C0 3 0 3 -1 5 C-1.66 5 -2.32 5 -3 5 C-3 5.66 -3 6.32 -3 7 C-3.66 7 -4.32 7 -5 7 C-5.33 8.32 -5.66 9.64 -6 11 C-6.99 10.67 -7.98 10.34 -9 10 C-8.34 10 -7.68 10 -7 10 C-6.67 7.69 -6.34 5.38 -6 3 C-4.68 3.33 -3.36 3.66 -2 4 C-1.34 2.68 -0.68 1.36 0 0 Z " fill="#71739A" transform="translate(1661,292)"/>
<path d="M0 0 C0 3 0 3 -1.375 4.6875 C-3 6 -3 6 -5 6 C-5.12375 6.61875 -5.2475 7.2375 -5.375 7.875 C-6 10 -6 10 -8 12 C-8 10.68 -8 9.36 -8 8 C-7.34 8 -6.68 8 -6 8 C-6 6.35 -6 4.7 -6 3 C-5.38125 2.87625 -4.7625 2.7525 -4.125 2.625 C-1.80879168 2.12802644 -1.80879168 2.12802644 0 0 Z " fill="#595E92" transform="translate(1583,231)"/>
<path d="M0 0 C-1.3125 2 -1.3125 2 -3 4 C-3.99 4 -4.98 4 -6 4 C-6.66 5.32 -7.32 6.64 -8 8 C-8.66 7.67 -9.32 7.34 -10 7 C-9.34 6.34 -8.68 5.68 -8 5 C-7.835 4.319375 -7.67 3.63875 -7.5 2.9375 C-7.335 2.298125 -7.17 1.65875 -7 1 C-4.53721199 -0.231394 -2.7204945 -0.07159196 0 0 Z " fill="#98A0FA" transform="translate(390,158)"/>
<path d="M0 0 C-0.25 1.875 -0.25 1.875 -1 4 C-2.8125 5.3125 -2.8125 5.3125 -5 6 C-7.25 5.625 -7.25 5.625 -9 5 C-7.68 4.67 -6.36 4.34 -5 4 C-5 3.34 -5 2.68 -5 2 C-2 0 -2 0 0 0 Z " fill="#363D7D" transform="translate(941,277)"/>
<path d="M0 0 C0.66 0 1.32 0 2 0 C1.67 4.29 1.34 8.58 1 13 C0.67 13 0.34 13 0 13 C-0.19466332 11.20909747 -0.38051213 9.41723495 -0.5625 7.625 C-0.66691406 6.62726563 -0.77132813 5.62953125 -0.87890625 4.6015625 C-1 2 -1 2 0 0 Z " fill="#6E76FD" transform="translate(467,368)"/>
<path d="M0 0 C1.06544301 3.19632902 1.19353531 3.97025652 0 7 C-1.9375 9.125 -1.9375 9.125 -4 11 C-4.66 11.66 -5.32 12.32 -6 13 C-5.45276317 9.62537285 -4.9451 7.91765 -3 5 C-2.34 5 -1.68 5 -1 5 C-0.67 3.35 -0.34 1.7 0 0 Z " fill="#A6AAC1" transform="translate(770,242)"/>
<path d="M0 0 C0.99 0.33 1.98 0.66 3 1 C-0.16952847 4.26008643 -3.39937989 7.22237877 -7 10 C-7.33 9.34 -7.66 8.68 -8 8 C-7.34 8 -6.68 8 -6 8 C-5.7525 7.4225 -5.505 6.845 -5.25 6.25 C-3.83316683 3.6997003 -2.12372463 1.98214299 0 0 Z " fill="#A0A3BF" transform="translate(1029,228)"/>
<path d="M0 0 C1.60031344 3.20062687 0.03173691 5.72271806 -1 9 C-2.32 9.33 -3.64 9.66 -5 10 C-3.66511872 6.40608886 -2.03977277 3.24509304 0 0 Z " fill="#575C96" transform="translate(761,199)"/>
<path d="M0 0 C2 1 2 1 3.125 4.25 C3.85463482 7.37700635 4.19234975 9.82622905 4 13 C2.58622659 10.36095629 1.62759865 7.92879371 1 5 C0.01 5.495 0.01 5.495 -1 6 C-0.67 4.02 -0.34 2.04 0 0 Z " fill="#D6D9F8" transform="translate(475,344)"/>
<path d="M0 0 C0.33 0.66 0.66 1.32 1 2 C1.66 2 2.32 2 3 2 C2.625 4.4375 2.625 4.4375 2 7 C1.01 7.495 1.01 7.495 0 8 C0 7.01 0 6.02 0 5 C-0.66 5 -1.32 5 -2 5 C-1.34 3.35 -0.68 1.7 0 0 Z " fill="#737CFC" transform="translate(479,341)"/>
<path d="M0 0 C0.66 0 1.32 0 2 0 C2 0.99 2 1.98 2 3 C1.34 3 0.68 3 0 3 C0 3.66 0 4.32 0 5 C-0.66 5 -1.32 5 -2 5 C-2.33 5.99 -2.66 6.98 -3 8 C-3.99 7.67 -4.98 7.34 -6 7 C-5.34 7 -4.68 7 -4 7 C-4 6.01 -4 5.02 -4 4 C-3.01 4 -2.02 4 -1 4 C-0.67 2.68 -0.34 1.36 0 0 Z " fill="#363974" transform="translate(1464,303)"/>
<path d="M0 0 C-0.33 1.65 -0.66 3.3 -1 5 C-2.32 5 -3.64 5 -5 5 C-4.625 3.0625 -4.625 3.0625 -4 1 C-2 0 -2 0 0 0 Z " fill="#19226C" transform="translate(772,186)"/>
<path d="M0 0 C0.33 0 0.66 0 1 0 C3.27678571 8.03571429 3.27678571 8.03571429 2 12 C-0.13586678 8.79619983 -0.23132175 7.98060033 -0.125 4.3125 C-0.10695313 3.50425781 -0.08890625 2.69601562 -0.0703125 1.86328125 C-0.04710937 1.24839844 -0.02390625 0.63351562 0 0 Z " fill="#C1C5D4" transform="translate(1379,270)"/>
<path d="M0 0 C0.33 0.66 0.66 1.32 1 2 C0.34 2 -0.32 2 -1 2 C-1.12375 2.598125 -1.2475 3.19625 -1.375 3.8125 C-2 6 -2 6 -4 9 C-4.66 8.67 -5.32 8.34 -6 8 C-2.25 1.125 -2.25 1.125 0 0 Z " fill="#919BFC" transform="translate(431,155)"/>
<path d="M0 0 C-3.42346555 3.14958831 -6.44262737 3.56179109 -11 4 C-7.54424257 0.54424257 -4.86390948 -0.27021719 0 0 Z " fill="#73779F" transform="translate(941,311)"/>
<path d="M0 0 C0.33 1.32 0.66 2.64 1 4 C-1.375 5.5625 -1.375 5.5625 -4 7 C-4.66 6.67 -5.32 6.34 -6 6 C-5.01 5.67 -4.02 5.34 -3 5 C-3 4.34 -3 3.68 -3 3 C-2.34 3 -1.68 3 -1 3 C-0.67 2.01 -0.34 1.02 0 0 Z " fill="#414B8B" transform="translate(1462,276)"/>
</svg>
